<?xml version="1.0" encoding="utf-8"?>
<!-- Generator: Adobe Illustrator 26.0.3, SVG Export Plug-In . SVG Version: 6.00 Build 0)  -->
<svg version="1.1" id="Layer_1" xmlns="http://www.w3.org/2000/svg" xmlns:xlink="http://www.w3.org/1999/xlink" x="0px" y="0px"
	 viewBox="0 0 760.1 1524.2" style="enable-background:new 0 0 760.1 1524.2;" xml:space="preserve">
<style type="text/css">
	.st0{fill:#F9D4E4;}
	.st1{fill:#EDADC9;}
	.st2{fill:#F39FBC;}
	.st3{fill:#FAD5E1;}
</style>
<g>
	<g>
		<g>
			<g>
				<path class="st0" d="M439.8,1473.8l238.2-921.3H82l238.2,921.3C337.6,1541,422.5,1541,439.8,1473.8l238.2-921.3H82l238.2,921.3
					C337.6,1541,422.5,1541,439.8,1473.8L439.8,1473.8z M439.8,1473.8"/>
			</g>
		</g>
		<g>
			<g>
				<path class="st1" d="M585.6,552.5l-238.2,921.3c-2.9,11.1-7.6,20.4-13.6,27.8c30.1,37.5,91.5,28.2,106-27.8l238.2-921.3H585.6z
					 M585.6,552.5"/>
			</g>
		</g>
	</g>
	<g>
		<g>
			<path class="st1" d="M227.7,1116.2l13.4,51.7l373-368.2l22.5-87.2L227.7,1116.2z M227.7,1116.2"/>
		</g>
	</g>
	<g>
		<g>
			<path class="st1" d="M298.3,1389.2l219.1-215.5l22.5-86.9L285,1337.5L298.3,1389.2z M298.3,1389.2"/>
		</g>
	</g>
	<g>
		<g>
			<path class="st2" d="M512.6,835.1L490,922.3l124.1-122.5l9.6-37.1l13-50.1L512.6,835.1z M512.6,835.1"/>
		</g>
	</g>
	<g>
		<g>
			<path class="st2" d="M517.4,1173.7l22.5-86.9L416,1208.7l-22.5,86.9L517.4,1173.7z M517.4,1173.7"/>
		</g>
	</g>
	<g>
		<g>
			<path class="st1" d="M205,1028.1l78.1-78.1c9-9,9-23.6,0-32.7c-9-9-23.6-9-32.7,0l-58.9,58.9L205,1028.1z M205,1028.1"/>
		</g>
	</g>
	<g>
		<g>
			<path class="st1" d="M368,637.3l-101,101c-9,9-9,23.6,0,32.7c4.5,4.5,10.4,6.8,16.3,6.8c5.9,0,11.8-2.3,16.3-6.8l101-101
				c9-9,9-23.6,0-32.7C391.6,628.3,377,628.3,368,637.3L368,637.3z M368,637.3"/>
		</g>
	</g>
	<g>
		<g>
			<g>
				<path class="st1" d="M698.6,535c2.3-15.6,3.6-31.6,3.6-47.9c0-177.9-144.2-322.1-322.1-322.1S57.9,309.1,57.9,487.1
					c0,16.3,1.3,32.3,3.6,47.9C26.1,544,0,576,0,614.2C0,659.4,36.6,696,81.8,696c33.2,0,61.8-19.8,74.6-48.2
					c12.8,28.4,41.4,48.2,74.6,48.2c33.2,0,61.8-19.8,74.6-48.2c12.8,28.4,41.4,48.2,74.6,48.2c33.2,0,61.8-19.8,74.6-48.2
					c12.8,28.4,41.4,48.2,74.6,48.2c33.2,0,61.8-19.8,74.6-48.2c12.8,28.4,41.4,48.2,74.6,48.2c45.1,0,81.8-36.6,81.8-81.8
					C760,576,733.9,544,698.6,535L698.6,535z M698.6,535"/>
			</g>
		</g>
		<g>
			<g>
				<path class="st1" d="M698.6,535c2.3-15.6,3.6-31.6,3.6-47.9c0-177.9-144.2-322.1-322.1-322.1c-15.7,0-31.1,1.1-46.2,3.3
					c156,22.4,275.9,156.6,275.9,318.8v0.5c0,25.1,11,48.6,29.9,65.1c17.1,15,28,37,28,61.6c0,28-14.1,52.7-35.5,67.4
					c14.9,10.2,33.3,15.7,53.1,14c38.2-3.2,69.6-33.3,74.2-71.3C764.6,581.8,737,544.8,698.6,535L698.6,535z M698.6,535"/>
			</g>
		</g>
		<g>
			<g>
				<path class="st3" d="M698.6,370.1c2.3-15.6,3.6-31.6,3.6-47.9C702.2,144.2,557.9,0,380,0S57.9,144.2,57.9,322.1
					c0,16.3,1.3,32.3,3.6,47.9C26.1,379.1,0,411.1,0,449.3c0,45.2,36.6,81.8,81.8,81.8c33.2,0,61.8-19.8,74.6-48.2
					c12.8,28.4,41.4,48.2,74.6,48.2c33.2,0,61.8-19.8,74.6-48.2c12.8,28.4,41.4,48.2,74.6,48.2c33.2,0,61.8-19.8,74.6-48.2
					c12.8,28.4,41.4,48.2,74.6,48.2c33.2,0,61.8-19.8,74.6-48.2c12.8,28.4,41.4,48.2,74.6,48.2c45.1,0,81.8-36.6,81.8-81.8
					C760,411.1,733.9,379.1,698.6,370.1L698.6,370.1z M698.6,370.1"/>
			</g>
		</g>
		<g>
			<g>
				<path class="st1" d="M698.6,370.1c2.3-15.6,3.6-31.6,3.6-47.9C702.2,144.2,557.9,0,380,0c-15.7,0-31.1,1.1-46.2,3.3
					c156,22.4,275.9,156.6,275.9,318.8v0.5c0,25.1,11,48.6,29.9,65.1c17.1,15,28,37,28,61.6c0,28-14.1,52.7-35.5,67.4
					c14.9,10.2,33.3,15.7,53.1,14c38.2-3.2,69.6-33.3,74.2-71.3C764.6,416.9,737,379.9,698.6,370.1L698.6,370.1z M698.6,370.1"/>
			</g>
		</g>
	</g>
	<g>
		<g>
			<path class="st2" d="M287.3,274.6c0,12.8-10.3,23.1-23.1,23.1c-12.8,0-23.1-10.3-23.1-23.1c0-12.8,10.4-23.1,23.1-23.1
				C276.9,251.5,287.3,261.9,287.3,274.6L287.3,274.6z M287.3,274.6"/>
		</g>
	</g>
	<g>
		<g>
			<path class="st2" d="M521.6,164.9c0,12.8-10.3,23.1-23.1,23.1c-12.8,0-23.1-10.3-23.1-23.1c0-12.8,10.3-23.1,23.1-23.1
				C511.2,141.8,521.6,152.1,521.6,164.9L521.6,164.9z M521.6,164.9"/>
		</g>
	</g>
	<g>
		<g>
			<path class="st2" d="M544.7,358.7c0,12.8-10.3,23.1-23.1,23.1s-23.1-10.4-23.1-23.1c0-12.8,10.3-23.1,23.1-23.1
				S544.7,345.9,544.7,358.7L544.7,358.7z M544.7,358.7"/>
		</g>
	</g>
</g>
</svg>
