<?xml version="1.0" encoding="utf-8"?>
<!-- Generator: Adobe Illustrator 26.0.3, SVG Export Plug-In . SVG Version: 6.00 Build 0)  -->
<svg version="1.1" id="Layer_1" xmlns="http://www.w3.org/2000/svg" xmlns:xlink="http://www.w3.org/1999/xlink" x="0px" y="0px"
	 viewBox="0 0 1555.1 1497.1" style="enable-background:new 0 0 1555.1 1497.1;" xml:space="preserve">
<style type="text/css">
	.st0{fill:#6AC7C5;}
	.st1{fill:#F9D4E4;}
	.st2{fill:#F4A0BD;}
	.st3{fill:#369994;}
	.st4{fill:#FFFFFF;}
	.st5{fill:#231F20;}
	.st6{fill:#CFEBEE;}
	.st7{opacity:0.78;}
</style>
<g>
	<g>
		<g>
			<g>
				<path class="st0" d="M1259.1,451c-0.3-0.3-0.7-0.6-1.1-1c-45.2,42-100.2,64.9-151.5,64.9c-31.3,0-61.2-8.4-86.7-26.2
					C956.7,444.9,937.3,356.3,966,270c-11.8-16.5-24.9-32-39.2-46.3c-67-67-159.4-108.4-261.7-108.4
					c-147.5,0-274.9,86.3-334.3,211.2c-8.2,17.2-21.1,31.1-36.7,40.8c-15.6,9.6-33.9,15-52.9,15c-66.6,0-126.9,27-170.6,70.6
					c-43.3,43.3-70.2,103-70.6,169c-0.7,110.2,75.9,203.8,177.7,233.3l76.7,582c4.5,34.3,33.8,60,68.4,60h689.4
					c34.6,0,63.8-25.7,68.4-60l76.6-580.8c41.1-11.1,77.9-32.9,107.2-62.2c45.2-45.2,72.6-108.3,70.5-177.8
					C1333,552,1303.9,493.4,1259.1,451z M362.5,1469c-9.8,0-18.7-3.7-25.4-9.9c-6.7-6.2-11.1-14.8-11.9-24.5l-43.8-569.8h74.9
					l43.4,564C401.4,1450.5,384.2,1469,362.5,1469z M503.9,1469L503.9,1469c-20,0-36.3-15.5-37.4-35.3l-31.3-568.9h74.9l31.1,564.9
					C542.4,1451,525.3,1469,503.9,1469z M688.6,1431.6c0,20.7-16.7,37.4-37.4,37.4H651c-20.7,0-37.4-16.7-37.4-37.4V864.8h74.9
					L688.6,1431.6L688.6,1431.6z M840.4,1433.7c-1.1,19.8-17.4,35.3-37.3,35.3H803c-21.5,0-38.5-18-37.3-39.4l31.1-564.9h74.9
					L840.4,1433.7z M981.6,1434.5c-1.5,19.4-17.8,34.5-37.3,34.5c-20.8,0-37.3-16.9-37.3-37.3c0-1,0-2,0.1-3l43.4-564h74.9
					L981.6,1434.5z"/>
			</g>
		</g>
		<g>
			<g>
				<path class="st1" d="M1555.1,614.2"/>
			</g>
		</g>
		<g>
			<g>
				<path class="st2" d="M1255.3,340.1c0,75-60.8,135.8-135.8,135.8s-135.8-60.8-135.8-135.8s60.8-135.8,135.8-135.8
					c65.6,0,46.6,57.5,79.6,51.5C1250.7,246.5,1255.3,301.3,1255.3,340.1z"/>
			</g>
		</g>
		<g>
			<g>
				<path class="st1" d="M1168.8,265l-8-11.6l91.6-87.4c53.5-51,115-92.7,182.1-123.6l91.1-41.9c3.1-1.4,6.7-0.4,8.6,2.4l0,0
					c2.4,3.5,1.1,8.4-2.8,10.2l-90.1,41.5c-67.1,30.9-128.6,72.7-182,123.7L1168.8,265z"/>
			</g>
		</g>
	</g>
	<g>
		<g>
			<path class="st3" d="M164,519.1c-0.3,0.2-0.5,0.5-0.8,0.7c-6.2,5.8-7.5,15.1-7.6,23.5c-0.2,15.3,2.3,30.6,5.9,45.5
				c6.1,25.5,15.8,50.8,32.9,70.7c24.3,28.1,61.4,42.3,98.3,47.1c36.8,4.9,69.9,11.5,107,11.5c43.6,0,72.9-1.3,109,0
				c32.6,1.2,72.7-2.2,105-6.7c5.5-0.8,26.3-3.5,24.9-11.2c-1.1-6.2-18.6-9-23.3-9.9c-22.6-4.3-45.8-2.7-68.5-5.7
				c-34.4-4.6-68.9-8.6-103.4-12.1c-43.9-4.5-88.4-8.2-129.8-23.5s-80-44-96.5-84.9c-5.2-12.9-8.3-27.1-17.2-37.8
				C191.2,516,174.2,510.6,164,519.1z"/>
		</g>
	</g>
	<g>
		<g>
			<path class="st3" d="M394.8,386.4c1.2,7,6.4,12.7,12.9,15.7c29.2,13.2,136.1,57.7,289.9,76.2c152.4,18.3,207.6,21.2,255.8,34.6
				c4.1,1.1,6.4-4.6,2.6-6.6c-22.2-11.7-59.4-27-113.1-35.2c-94.5-14.5-297.9-36.3-356.1-72.7C436,366.6,390.7,362.6,394.8,386.4z"
				/>
		</g>
	</g>
</g>
<g>
	<g>
		<path class="st0" d="M-153.1,747.7c0,359.3-291.3,650.6-650.6,650.6c-359.3,0-650.6-291.3-650.6-650.6
			c0-359.3,291.3-650.6,650.6-650.6C-444.4,97.1-153.1,388.4-153.1,747.7"/>
	</g>
	<g>
		<path class="st2" d="M-243,749.7c0,308.1-249.8,557.9-557.9,557.9c-308.1,0-557.9-249.8-557.9-557.9
			c0-308.1,249.8-557.9,557.9-557.9C-492.8,191.8-243,441.5-243,749.7"/>
	</g>
	<g>
		<path class="st0" d="M-557.8,1185.3H-577h-50.9h-72.7h-84.8h-86.9h-79.3h-61.7h-34.3c-3.6,0-7.2,0-10.8-0.2
			c-19.7-1.1-38.4-7-52.4-16.3c-13.8-9.2-22.7-21.6-24.6-34.6c-0.4-2.6-0.4-5.2-0.4-7.8v-20.2v-37.3v-49.3v-56.4v-58.9v-56.2v-48.6
			v-36.1v-18.7c0-17.8,11-34.6,31.8-45.8c14.9-8,33.5-12.4,52.5-12.4c1.8,0,3.6,0,5.4,0h36.9h63.5h80.2h87.1h84.2h71.2h48.8
			c8.4,0,17-0.3,25.4,0.3c39.8,2.9,72.1,25.3,75.1,52.2c0.5,4.8,0.2,9.6,0.2,14.4V783v44.1v53.7v58.4v58.1v52.9v42.7v27.7
			c0,7.1,0.2,14.1-2.3,21.2C-484.9,1167-519.4,1185.3-557.8,1185.3"/>
	</g>
	<g>
		<g>
			<path class="st4" d="M-664.9,1010.5c4,0,7.3,1.4,10.1,4.1c2.8,2.7,4.2,6.1,4.2,10.2c0,2-0.4,3.9-1.1,5.6c-0.8,1.7-1.8,3.2-3,4.5
				c-1.3,1.3-2.8,2.3-4.6,3c-1.8,0.8-3.6,1.1-5.6,1.1h-21v5h11c4,0,7.3,1.4,10.1,4.1c2.8,2.7,4.2,6.1,4.2,10.2c0,2-0.4,3.9-1.1,5.6
				c-0.8,1.7-1.8,3.2-3,4.5c-1.3,1.3-2.8,2.3-4.6,3c-1.8,0.8-3.6,1.2-5.6,1.2h-11v5h21c4,0,7.3,1.4,10.1,4.1
				c2.8,2.7,4.2,6.1,4.2,10.2c0,2-0.4,3.9-1.1,5.6c-0.8,1.7-1.8,3.2-3,4.5c-1.3,1.3-2.8,2.3-4.6,3c-1.8,0.8-3.6,1.1-5.6,1.1h-35.3
				c-4.1,0-7.5-1.4-10.2-4.1c-2.7-2.7-4.1-6.1-4.1-10.2v-66.3c-0.1-1.8-0.4-3.7-0.8-5.5c-0.4-1.8-0.5-3.5-0.4-5
				c0.1-1.5,0.8-2.7,2.1-3.6c1.2-0.9,3.5-1.4,6.9-1.4H-664.9z"/>
			<path class="st5" d="M-664.9,1108.6h-35.4c-4.6,0-8.6-1.6-11.7-4.7c-3.2-3.2-4.8-7.1-4.8-11.7v-66.3c-0.1-1.5-0.3-3.3-0.7-5
				c-0.5-2-0.6-3.9-0.4-5.6c0.2-2.1,1.2-3.8,2.9-5.1c1.7-1.2,4.2-1.8,8.2-1.8h41.9c4.5,0,8.5,1.6,11.7,4.7c3.2,3.2,4.8,7.1,4.8,11.8
				c0,2.3-0.4,4.5-1.3,6.5c-0.9,2-2.1,3.7-3.5,5.2c-1.5,1.5-3.3,2.7-5.3,3.5c-2.1,0.9-4.2,1.3-6.4,1.3h-18.8v0.7h8.8
				c4.5,0,8.5,1.6,11.7,4.7c3.2,3.2,4.8,7.1,4.8,11.8c0,2.3-0.4,4.5-1.3,6.5c-0.9,2-2,3.7-3.5,5.2c-1.5,1.5-3.2,2.6-5.2,3.5
				c-2.1,0.9-4.2,1.3-6.4,1.3h-8.8v0.7h18.8c4.5,0,8.4,1.6,11.7,4.7c3.2,3.2,4.8,7.1,4.8,11.8c0,2.3-0.4,4.5-1.3,6.5
				c-0.9,2-2.1,3.7-3.5,5.1c-1.5,1.5-3.2,2.6-5.3,3.5C-660.5,1108.2-662.7,1108.6-664.9,1108.6z M-706.8,1012.6
				c-3.9,0-5.2,0.6-5.5,0.9c-0.7,0.6-1.1,1.2-1.2,2.1c-0.1,1.2,0,2.7,0.3,4.3c0.4,2,0.7,4,0.8,5.8v66.4c0,3.5,1.1,6.3,3.5,8.7
				c2.3,2.3,5.2,3.5,8.7,3.5h35.4c1.6,0,3.2-0.3,4.7-1c1.5-0.7,2.8-1.5,3.9-2.6c1.1-1.1,1.9-2.3,2.6-3.8c0.6-1.4,1-3,1-4.7
				c0-3.5-1.2-6.3-3.5-8.7c-2.4-2.3-5.2-3.5-8.6-3.5h-23.2v-9.4h13.1c1.6,0,3.2-0.3,4.7-1c1.5-0.6,2.8-1.5,3.9-2.6
				c1.1-1.1,1.9-2.3,2.6-3.8c0.6-1.4,1-3,1-4.8c0-3.5-1.2-6.3-3.5-8.7c-2.4-2.3-5.2-3.5-8.6-3.5h-13.1v-9.4h23.2
				c1.6,0,3.2-0.3,4.7-1c1.5-0.6,2.8-1.5,3.9-2.6c1.1-1.1,1.9-2.3,2.6-3.8c0.6-1.4,1-3,1-4.7c0-3.5-1.2-6.3-3.5-8.7
				c-2.4-2.3-5.2-3.5-8.6-3.5H-706.8z"/>
		</g>
		<g>
			<path class="st4" d="M-595.9,1010.5c4,0,7.3,1.4,10.1,4.1c2.8,2.7,4.2,6.1,4.2,10.2c0,2-0.4,3.9-1.1,5.6c-0.8,1.7-1.8,3.2-3,4.5
				c-1.3,1.3-2.8,2.3-4.6,3c-1.8,0.8-3.6,1.1-5.6,1.1h-21v5h11c4,0,7.3,1.4,10.1,4.1c2.8,2.7,4.2,6.1,4.2,10.2c0,2-0.4,3.9-1.1,5.6
				c-0.8,1.7-1.8,3.2-3,4.5c-1.3,1.3-2.8,2.3-4.6,3c-1.8,0.8-3.6,1.2-5.6,1.2h-11v5h21c4,0,7.3,1.4,10.1,4.1
				c2.8,2.7,4.2,6.1,4.2,10.2c0,2-0.4,3.9-1.1,5.6c-0.8,1.7-1.8,3.2-3,4.5c-1.3,1.3-2.8,2.3-4.6,3c-1.8,0.8-3.6,1.1-5.6,1.1h-35.3
				c-4.1,0-7.5-1.4-10.2-4.1c-2.7-2.7-4.1-6.1-4.1-10.2v-66.3c-0.1-1.8-0.4-3.7-0.8-5.5c-0.4-1.8-0.5-3.5-0.4-5
				c0.2-1.5,0.8-2.7,2.1-3.6c1.2-0.9,3.5-1.4,6.8-1.4H-595.9z"/>
			<path class="st5" d="M-595.9,1108.6h-35.3c-4.6,0-8.6-1.6-11.7-4.7c-3.2-3.2-4.7-7.1-4.7-11.7v-66.3c-0.1-1.5-0.3-3.3-0.7-5
				c-0.5-2-0.6-3.9-0.4-5.6c0.2-2.1,1.2-3.8,2.9-5.1c1.6-1.2,4.2-1.8,8.2-1.8h41.9c4.5,0,8.5,1.6,11.7,4.7c3.2,3.2,4.8,7.1,4.8,11.8
				c0,2.3-0.4,4.5-1.3,6.5c-0.9,2-2.1,3.7-3.5,5.2c-1.5,1.5-3.2,2.7-5.3,3.5c-2.1,0.9-4.2,1.3-6.4,1.3h-18.8v0.7h8.8
				c4.5,0,8.4,1.6,11.7,4.7c3.2,3.2,4.9,7.1,4.9,11.8c0,2.3-0.4,4.5-1.3,6.5c-0.9,1.9-2,3.7-3.5,5.2c-1.4,1.5-3.2,2.6-5.3,3.5
				c-2,0.9-4.2,1.3-6.4,1.3h-8.8v0.7h18.8c4.5,0,8.5,1.6,11.7,4.7c3.2,3.2,4.8,7.1,4.8,11.8c0,2.3-0.4,4.5-1.3,6.5
				c-0.9,1.9-2,3.7-3.5,5.1c-1.5,1.5-3.2,2.6-5.3,3.5C-591.6,1108.2-593.7,1108.6-595.9,1108.6z M-637.8,1012.6
				c-3.9,0-5.2,0.6-5.5,0.9c-0.7,0.6-1.1,1.2-1.2,2.1c-0.1,1.3,0,2.7,0.3,4.2c0.4,2,0.7,4,0.8,5.9v66.4c0,3.5,1.1,6.3,3.5,8.7
				c2.3,2.3,5.2,3.5,8.7,3.5h35.3c1.6,0,3.2-0.3,4.7-1c1.5-0.6,2.8-1.5,3.9-2.6c1.1-1.1,1.9-2.4,2.6-3.8c0.6-1.4,1-3,1-4.8
				c0-3.5-1.2-6.3-3.5-8.7c-2.4-2.3-5.2-3.5-8.6-3.5h-23.2v-9.4h13.2c1.6,0,3.2-0.3,4.7-1c1.5-0.7,2.8-1.5,3.9-2.6
				c1.1-1.1,2-2.4,2.6-3.8c0.6-1.5,1-3.1,1-4.8c0-3.5-1.2-6.3-3.5-8.7c-2.4-2.3-5.2-3.5-8.6-3.5h-13.2v-9.4h23.2
				c1.6,0,3.2-0.3,4.7-1c1.5-0.6,2.8-1.5,3.9-2.6c1.1-1.1,1.9-2.4,2.6-3.8c0.6-1.4,1-3,1-4.7c0-3.5-1.2-6.3-3.5-8.7
				c-2.4-2.3-5.2-3.5-8.6-3.5H-637.8z"/>
		</g>
		<g>
			<path class="st4" d="M-1101.4,1037.1c0.4-3.8,1.4-7.3,3-10.5c1.6-3.2,3.9-6.1,6.8-8.5c2.9-2.4,6.3-4.3,10.4-5.6
				c4-1.4,8.6-2,13.6-2c1.9,0,4.2,0.3,6.8,0.8c2.6,0.6,5.2,1.4,7.8,2.4c2.6,1.1,5.1,2.4,7.5,4c2.4,1.6,4.3,3.3,5.9,5.3
				c1.2,1.4,2.1,3,2.7,4.8c0.6,1.8,0.8,3.6,0.7,5.5c-0.1,1.9-0.5,3.7-1.1,5.4c-0.7,1.7-1.7,3.2-3,4.6c-1.4,1.4-3,2.5-4.9,3.1
				c-1.8,0.7-3.7,1-5.6,1.1c-1.9,0.1-3.8-0.2-5.7-0.8c-1.9-0.6-3.6-1.5-5.1-2.7c-0.6-0.5-1.1-1.1-1.5-1.9c-0.4-0.8-0.8-1.5-1.3-2.2
				c-0.5-0.7-1-1.3-1.7-1.8c-0.7-0.5-1.7-0.8-2.9-0.8c-1.5,0-2.7,0.2-3.5,0.7c-0.8,0.5-1.3,1-1.4,1.7c-0.1,0.7,0.1,1.3,0.6,2.1
				c0.5,0.7,1.2,1.3,2.1,1.8l16.9,9.6c4.5,2.1,8.1,4.5,11,7c2.8,2.5,5,5.1,6.5,7.7c1.5,2.6,2.4,5.2,2.7,7.8c0.3,2.6,0.1,5.1-0.5,7.4
				c-0.8,4.2-2.5,7.7-4.9,10.7c-2.5,3-5.3,5.4-8.5,7.3c-3.2,1.9-6.4,3.3-9.8,4.2c-3.4,0.9-6.5,1.4-9.2,1.4
				c-6.4,0.1-11.4-0.5-15.1-1.8c-3.7-1.3-6.6-2.8-8.8-4.5c-2.1-1.6-4-3.5-5.7-5.6c-1.7-2.1-2.9-4.3-3.7-6.5
				c-0.8-2.3-1.1-4.6-0.8-6.9c0.3-2.3,1.3-4.4,3-6.5c0.9-1.1,2.3-2.1,4-2.9c1.8-0.8,3.7-1.3,5.8-1.4c2.1-0.1,4.2,0.3,6.4,1.1
				c2.2,0.9,4.2,2.4,6,4.6c1.4,1.8,3,2.9,4.7,3.1c1.7,0.3,3,0.3,3.8,0.1c1.6-0.3,2.5-1.3,2.6-2.9c0.1-1.6-0.8-3-2.6-4.1
				c-1.9-1.2-4.9-2.9-8.9-5c-4-2.1-8.7-4.4-13.9-6.9c-1.1-0.5-2.4-1.2-3.9-2.2c-1.5-1-2.8-2.3-4-4.1c-1.2-1.8-2.1-4-2.7-6.8
				C-1101.7,1044.7-1101.8,1041.3-1101.4,1037.1"/>
			<path class="st5" d="M-1068.7,1108.6c-6,0-10.7-0.6-14.3-1.9c-3.9-1.3-7-3-9.5-4.8c-2.3-1.7-4.3-3.7-6.1-5.9
				c-1.8-2.3-3.2-4.7-4.1-7.2c-0.9-2.6-1.2-5.3-0.9-7.9c0.4-2.7,1.5-5.2,3.5-7.6c1.1-1.3,2.7-2.5,4.8-3.5c2.1-0.9,4.3-1.5,6.6-1.6
				c2.3-0.1,4.8,0.3,7.3,1.3c2.5,1,4.8,2.8,6.9,5.3c1.1,1.4,2.2,2.2,3.3,2.3c2,0.3,2.8,0.2,3,0.1c0.8-0.2,0.9-0.3,0.9-0.9
				c0-0.3,0.1-1.1-1.6-2.1c-1.9-1.2-4.8-2.8-8.8-4.9c-4-2.1-8.6-4.4-13.9-6.9c-1.2-0.5-2.6-1.3-4.1-2.4c-1.7-1.1-3.3-2.7-4.6-4.7
				c-1.3-2-2.3-4.5-3-7.5c-0.7-3-0.9-6.7-0.4-11.1l0,0c0.4-4,1.5-7.8,3.3-11.3c1.8-3.5,4.2-6.6,7.3-9.2c3.1-2.6,6.8-4.6,11-6
				c4.2-1.4,9-2.2,14.3-2.2c2.1,0,4.5,0.3,7.2,0.9c2.7,0.6,5.4,1.4,8.1,2.6c2.7,1.1,5.3,2.5,7.8,4.1c2.6,1.7,4.7,3.6,6.4,5.7
				c1.3,1.6,2.4,3.4,3,5.5c0.6,2,0.9,4.1,0.8,6.2c-0.1,2.1-0.5,4.1-1.3,6.1c-0.8,2-1.9,3.8-3.5,5.3c-1.7,1.7-3.6,2.9-5.7,3.6
				c-2,0.7-4.2,1.1-6.3,1.2c-2.2,0.1-4.3-0.3-6.4-0.9c-0.3-0.1-0.6-0.2-0.9-0.3l4.8,2.7c4.5,2.1,8.4,4.6,11.4,7.3
				c3,2.7,5.3,5.4,6.9,8.2c1.6,2.8,2.6,5.7,2.9,8.6c0.3,2.8,0.2,5.6-0.5,8.2c-0.9,4.4-2.7,8.3-5.4,11.6c-2.6,3.2-5.7,5.8-9,7.8
				c-3.3,2-6.8,3.5-10.4,4.4C-1061.7,1108.3-1065.5,1108.6-1068.7,1108.6z M-1087.9,1072.6c-0.2,0-0.4,0-0.5,0
				c-1.8,0.1-3.4,0.5-5,1.2c-1.5,0.7-2.5,1.4-3.2,2.3c-1.5,1.8-2.3,3.5-2.6,5.4c-0.3,2-0.1,3.9,0.6,5.8c0.7,2.1,1.8,4,3.4,5.9
				c1.5,1.9,3.3,3.7,5.3,5.2c2,1.6,4.8,3,8.2,4.2c3.4,1.2,8.3,1.7,14.3,1.6c2.5,0,5.5-0.4,8.7-1.3c3.2-0.8,6.3-2.2,9.3-3.9
				c2.9-1.7,5.6-4,7.9-6.8c2.2-2.7,3.7-6,4.5-9.8c0.6-2.2,0.7-4.4,0.4-6.7c-0.3-2.3-1.1-4.6-2.4-7c-1.4-2.4-3.4-4.8-6-7.1
				c-2.7-2.4-6.2-4.6-10.5-6.7l-17-9.7c-1.2-0.7-2.1-1.5-2.8-2.5c-1.1-1.5-1.1-2.8-1-3.7c0.1-0.9,0.7-2.2,2.5-3.2
				c2.2-1.2,6.4-1.4,8.7,0.2c0.9,0.7,1.7,1.5,2.3,2.4c0.5,0.7,0.9,1.5,1.4,2.3c0.3,0.5,0.6,0.9,1,1.3c1.3,1,2.7,1.8,4.4,2.4
				c1.6,0.5,3.3,0.8,5,0.7c1.7,0,3.3-0.4,5-0.9c1.5-0.5,2.9-1.4,4.1-2.6c1.1-1.1,1.9-2.4,2.5-3.8c0.6-1.5,0.9-3.1,1-4.7
				c0.1-1.6-0.1-3.2-0.6-4.7c-0.5-1.5-1.2-2.8-2.2-4c-1.4-1.8-3.2-3.4-5.4-4.9c-2.3-1.5-4.6-2.7-7.1-3.8c-2.5-1-5-1.8-7.4-2.3
				c-2.4-0.5-4.6-0.8-6.3-0.8c-4.8,0-9.2,0.6-12.9,1.9c-3.7,1.3-7,3-9.7,5.3c-2.6,2.2-4.7,4.8-6.2,7.7c-1.5,3-2.5,6.3-2.8,9.8
				c-0.4,3.9-0.3,7.1,0.3,9.6c0.6,2.5,1.4,4.5,2.4,6.1c1,1.5,2.1,2.7,3.3,3.5c1.4,0.9,2.6,1.6,3.6,2.1c5.3,2.6,10,4.9,14,7
				c4.1,2.1,7.1,3.8,9.1,5.1c3.2,1.9,3.7,4.4,3.6,6.1c-0.2,2.6-1.8,4.4-4.4,4.9c-1,0.2-2.5,0.2-4.5-0.1c-2.3-0.3-4.4-1.7-6.1-3.9
				c-1.5-1.9-3.3-3.2-5.1-4C-1084.6,1073-1086.3,1072.6-1087.9,1072.6z M-1069.2,1039.3c-1.5,0-2.2,0.3-2.4,0.4l0,0l0,0.6
				c0.3,0.4,0.8,0.8,1.4,1.2l7.2,4.1c0,0,0,0-0.1,0c-0.9-0.7-1.6-1.6-2.1-2.6c-0.4-0.7-0.8-1.4-1.2-2c-0.3-0.5-0.7-0.9-1.2-1.2
				C-1067.9,1039.4-1068.5,1039.3-1069.2,1039.3z"/>
		</g>
		<g>
			<path class="st4" d="M-575.7,1037.1c0.4-3.8,1.4-7.3,3-10.5c1.6-3.2,3.9-6.1,6.8-8.5c2.9-2.4,6.3-4.3,10.4-5.6
				c4-1.4,8.6-2,13.6-2c1.9,0,4.2,0.3,6.8,0.8c2.6,0.6,5.2,1.4,7.8,2.4c2.6,1.1,5.1,2.4,7.5,4c2.4,1.6,4.3,3.3,5.9,5.3
				c1.2,1.4,2.1,3,2.7,4.8c0.6,1.8,0.8,3.6,0.7,5.5c-0.1,1.9-0.5,3.7-1.1,5.4c-0.7,1.7-1.7,3.2-3,4.6c-1.4,1.4-3,2.5-4.9,3.1
				c-1.8,0.7-3.7,1-5.6,1.1c-1.9,0.1-3.8-0.2-5.7-0.8c-1.9-0.6-3.6-1.5-5.1-2.7c-0.6-0.5-1.1-1.1-1.5-1.9c-0.4-0.8-0.8-1.5-1.3-2.2
				c-0.5-0.7-1-1.3-1.7-1.8c-0.7-0.5-1.7-0.8-2.9-0.8c-1.5,0-2.7,0.2-3.5,0.7c-0.8,0.5-1.3,1-1.4,1.7c-0.1,0.7,0.1,1.3,0.6,2.1
				c0.5,0.7,1.2,1.3,2.1,1.8l16.9,9.6c4.5,2.1,8.1,4.5,11,7c2.8,2.5,5,5.1,6.5,7.7c1.5,2.6,2.4,5.2,2.7,7.8c0.3,2.6,0.1,5.1-0.5,7.4
				c-0.8,4.2-2.5,7.7-4.9,10.7c-2.5,3-5.3,5.4-8.5,7.3c-3.2,1.9-6.4,3.3-9.8,4.2c-3.4,0.9-6.5,1.4-9.2,1.4
				c-6.4,0.1-11.4-0.5-15.1-1.8c-3.7-1.3-6.6-2.8-8.8-4.5c-2.1-1.6-4-3.5-5.7-5.6c-1.7-2.1-2.9-4.3-3.7-6.5
				c-0.8-2.3-1.1-4.6-0.8-6.9c0.3-2.3,1.3-4.4,3-6.5c0.9-1.1,2.3-2.1,4-2.9c1.8-0.8,3.7-1.3,5.8-1.4c2.1-0.1,4.2,0.3,6.4,1.1
				c2.2,0.9,4.2,2.4,6,4.6c1.4,1.8,3,2.9,4.7,3.1c1.7,0.3,3,0.3,3.8,0.1c1.6-0.3,2.5-1.3,2.6-2.9c0.1-1.6-0.8-3-2.6-4.1
				c-1.9-1.2-4.9-2.9-8.9-5c-4-2.1-8.7-4.4-13.9-6.9c-1.1-0.5-2.4-1.2-3.9-2.2c-1.5-1-2.8-2.3-4-4.1c-1.2-1.8-2.1-4-2.7-6.8
				C-576,1044.7-576.1,1041.3-575.7,1037.1"/>
			<path class="st5" d="M-543,1108.6c-6,0-10.7-0.6-14.3-1.9c-3.9-1.3-7-3-9.5-4.8c-2.3-1.7-4.3-3.7-6.1-5.9
				c-1.8-2.3-3.2-4.7-4.1-7.2c-0.9-2.6-1.2-5.3-0.9-7.9c0.4-2.7,1.6-5.3,3.5-7.6c1.1-1.3,2.7-2.5,4.8-3.5c2.1-0.9,4.3-1.5,6.6-1.6
				c2.4-0.1,4.8,0.3,7.3,1.3c2.5,1,4.8,2.8,6.9,5.3c1.1,1.4,2.2,2.2,3.3,2.3c2,0.3,2.8,0.2,3,0.1c0.8-0.2,0.9-0.4,0.9-0.9
				c0-0.4,0.1-1.1-1.6-2.1c-1.9-1.2-4.8-2.8-8.8-4.9c-4-2.1-8.6-4.4-13.9-6.9c-1.2-0.5-2.6-1.3-4.1-2.4c-1.7-1.1-3.3-2.7-4.6-4.7
				c-1.3-2-2.3-4.4-3-7.5c-0.7-3-0.9-6.6-0.4-11.1v0c0.4-4,1.5-7.8,3.3-11.2c1.8-3.5,4.2-6.6,7.3-9.2c3.1-2.5,6.8-4.6,11-6
				c4.2-1.4,9-2.2,14.3-2.2c2.1,0,4.5,0.3,7.3,0.9c2.7,0.6,5.4,1.4,8.1,2.6c2.7,1.1,5.4,2.5,7.8,4.1c2.6,1.7,4.7,3.6,6.4,5.7
				c1.3,1.6,2.4,3.4,3,5.5c0.6,2,0.9,4.1,0.8,6.3c-0.1,2.1-0.5,4.2-1.3,6.1c-0.8,2-1.9,3.8-3.5,5.3c-1.7,1.7-3.6,2.9-5.7,3.6
				c-2,0.7-4.2,1.1-6.3,1.2c-2.2,0.1-4.3-0.3-6.4-0.9c-0.3-0.1-0.6-0.2-0.9-0.3l4.8,2.7c4.5,2.1,8.3,4.6,11.3,7.3
				c3,2.7,5.3,5.5,6.9,8.2c1.6,2.8,2.6,5.7,2.9,8.6c0.3,2.9,0.2,5.6-0.5,8.2c-0.9,4.4-2.7,8.3-5.4,11.6c-2.7,3.2-5.7,5.8-9,7.8
				c-3.3,2-6.8,3.5-10.4,4.4C-536,1108.3-539.7,1108.6-543,1108.6z M-562.2,1072.6c-0.2,0-0.4,0-0.5,0c-1.8,0.1-3.4,0.5-5,1.2
				c-1.5,0.7-2.6,1.4-3.2,2.3c-1.5,1.8-2.3,3.5-2.6,5.4c-0.3,1.9,0,3.9,0.7,5.8c0.7,2.1,1.8,4,3.4,5.9c1.5,1.9,3.3,3.7,5.3,5.2
				c2,1.6,4.8,3,8.2,4.2c3.4,1.2,8.2,1.7,14.3,1.6c2.6,0,5.5-0.4,8.7-1.3c3.2-0.8,6.3-2.2,9.3-3.9c2.9-1.7,5.6-4,7.9-6.8
				c2.2-2.7,3.7-6,4.5-9.8c0.6-2.2,0.7-4.4,0.4-6.7c-0.3-2.3-1.1-4.6-2.4-6.9c-1.3-2.4-3.4-4.8-6-7.1c-2.7-2.4-6.2-4.6-10.5-6.7
				l-17-9.7c-1.2-0.7-2.1-1.5-2.8-2.5c-1.1-1.5-1.1-2.8-1-3.7c0.1-0.9,0.7-2.2,2.5-3.2c2.2-1.2,6.4-1.4,8.7,0.2
				c0.9,0.7,1.7,1.5,2.3,2.4c0.5,0.8,0.9,1.5,1.4,2.3c0.3,0.5,0.6,0.9,1,1.3c1.3,1.1,2.8,1.8,4.4,2.4c1.6,0.5,3.3,0.8,5,0.7
				c1.7,0,3.3-0.4,5-0.9c1.5-0.5,2.9-1.4,4.1-2.6c1.1-1.1,1.9-2.4,2.5-3.8c0.6-1.5,0.9-3.1,1-4.7c0.1-1.6-0.1-3.2-0.6-4.7
				c-0.5-1.5-1.2-2.9-2.2-4c-1.4-1.8-3.2-3.4-5.4-4.9c-2.2-1.5-4.6-2.7-7.1-3.8c-2.5-1-5-1.8-7.4-2.3c-2.4-0.5-4.6-0.8-6.3-0.8
				c-4.8,0-9.2,0.6-12.9,1.9c-3.7,1.3-7,3-9.7,5.3c-2.6,2.2-4.7,4.8-6.2,7.7c-1.5,3-2.5,6.3-2.8,9.8c-0.4,3.9-0.3,7.1,0.3,9.6
				c0.6,2.5,1.4,4.5,2.4,6.1c1,1.5,2.1,2.7,3.3,3.5c1.4,0.9,2.6,1.6,3.6,2c5.3,2.6,10,4.9,14,7c4.1,2.1,7.1,3.8,9.1,5.1
				c3.2,1.9,3.7,4.4,3.6,6.1c-0.2,2.6-1.7,4.4-4.4,4.9c-1,0.2-2.5,0.2-4.5-0.1c-2.3-0.3-4.4-1.7-6.1-3.9c-1.5-1.9-3.3-3.2-5.1-4
				C-558.9,1073-560.6,1072.6-562.2,1072.6z M-543.5,1039.3c-1.5,0-2.2,0.3-2.4,0.4l0,0l0,0.6c0.3,0.4,0.8,0.8,1.4,1.2l7.2,4.1
				c0,0-0.1,0-0.1-0.1c-0.9-0.7-1.5-1.6-2.1-2.6c-0.4-0.7-0.8-1.4-1.2-2c-0.3-0.5-0.7-0.9-1.2-1.2
				C-542.2,1039.4-542.8,1039.3-543.5,1039.3z"/>
		</g>
		<g>
			<path class="st4" d="M-873,1037.1c0.4-3.8,1.4-7.3,3-10.5c1.6-3.2,3.9-6.1,6.8-8.5c2.9-2.4,6.4-4.3,10.4-5.6c4-1.4,8.6-2,13.6-2
				c1.9,0,4.2,0.3,6.8,0.8c2.6,0.6,5.2,1.4,7.8,2.4c2.6,1.1,5.1,2.4,7.5,4c2.4,1.6,4.3,3.3,5.9,5.3c1.2,1.4,2.1,3,2.7,4.8
				c0.6,1.8,0.8,3.6,0.7,5.5c-0.1,1.9-0.5,3.7-1.1,5.4c-0.7,1.7-1.7,3.2-3,4.6c-1.4,1.4-3,2.5-4.9,3.1c-1.8,0.7-3.7,1-5.6,1.1
				c-1.9,0.1-3.8-0.2-5.7-0.8c-1.9-0.6-3.6-1.5-5.1-2.7c-0.6-0.5-1.1-1.1-1.5-1.9c-0.4-0.8-0.8-1.5-1.3-2.2c-0.5-0.7-1-1.3-1.7-1.8
				c-0.7-0.5-1.7-0.8-2.9-0.8c-1.5,0-2.7,0.2-3.5,0.7c-0.8,0.5-1.3,1-1.4,1.7c-0.1,0.7,0.1,1.3,0.6,2.1c0.5,0.7,1.2,1.3,2.1,1.8
				l16.9,9.6c4.5,2.1,8.1,4.5,11,7c2.8,2.5,5,5.1,6.5,7.7c1.5,2.6,2.4,5.2,2.7,7.8c0.3,2.6,0.1,5.1-0.5,7.4
				c-0.8,4.2-2.5,7.7-4.9,10.7c-2.5,3-5.3,5.4-8.5,7.3c-3.2,1.9-6.4,3.3-9.8,4.2c-3.4,0.9-6.5,1.4-9.2,1.4
				c-6.4,0.1-11.4-0.5-15.1-1.8c-3.7-1.3-6.6-2.8-8.8-4.5c-2.1-1.6-4-3.5-5.7-5.6c-1.7-2.1-2.9-4.3-3.7-6.5
				c-0.8-2.3-1.1-4.6-0.8-6.9c0.3-2.3,1.3-4.4,3-6.5c0.9-1.1,2.3-2.1,4-2.9c1.8-0.8,3.7-1.3,5.8-1.4c2.1-0.1,4.2,0.3,6.4,1.1
				c2.2,0.9,4.2,2.4,6,4.6c1.4,1.8,3,2.9,4.7,3.1c1.7,0.3,3,0.3,3.8,0.1c1.6-0.3,2.5-1.3,2.6-2.9c0.1-1.6-0.8-3-2.6-4.1
				c-1.9-1.2-4.9-2.9-8.9-5c-4-2.1-8.7-4.4-13.9-6.9c-1.1-0.5-2.4-1.2-3.9-2.2c-1.5-1-2.8-2.3-4-4.1c-1.2-1.8-2.1-4-2.7-6.8
				C-873.3,1044.7-873.4,1041.3-873,1037.1"/>
			<path class="st5" d="M-840.3,1108.6c-6,0-10.7-0.6-14.3-1.9c-3.9-1.3-7.1-3-9.5-4.8c-2.3-1.7-4.3-3.7-6.1-5.9
				c-1.8-2.3-3.2-4.7-4.1-7.2c-0.9-2.6-1.2-5.3-0.9-7.9c0.4-2.7,1.6-5.2,3.5-7.6c1.1-1.3,2.7-2.5,4.8-3.5c2.1-0.9,4.3-1.5,6.6-1.6
				c2.4-0.1,4.8,0.3,7.3,1.3c2.5,1,4.8,2.8,6.9,5.3c1.1,1.4,2.2,2.2,3.3,2.3c2,0.3,2.7,0.2,3,0.1c0.8-0.2,0.9-0.3,0.9-0.9
				c0-0.3,0.1-1.1-1.6-2.1c-1.9-1.2-4.7-2.8-8.8-4.9c-4-2.1-8.6-4.4-13.9-6.9c-1.2-0.5-2.6-1.3-4.1-2.4c-1.7-1.1-3.3-2.7-4.6-4.7
				c-1.3-2-2.3-4.5-3-7.5c-0.7-3-0.9-6.6-0.4-11.1l0,0c0.4-4,1.5-7.8,3.3-11.3c1.8-3.5,4.2-6.6,7.3-9.2c3.1-2.6,6.8-4.6,11-6
				c4.2-1.4,9-2.2,14.3-2.2c2.1,0,4.5,0.3,7.2,0.9c2.7,0.6,5.4,1.4,8.1,2.6c2.7,1.1,5.3,2.5,7.8,4.1c2.6,1.7,4.7,3.6,6.4,5.7
				c1.3,1.5,2.4,3.4,3,5.5c0.6,2,0.9,4.1,0.8,6.3c-0.1,2.1-0.5,4.1-1.3,6.1c-0.8,2-1.9,3.8-3.5,5.3c-1.7,1.7-3.6,2.9-5.7,3.6
				c-2,0.7-4.2,1.1-6.3,1.2c-2.2,0.1-4.3-0.3-6.4-0.9c-0.3-0.1-0.6-0.2-0.9-0.3l4.8,2.7c4.5,2.1,8.4,4.6,11.3,7.3
				c3,2.7,5.3,5.4,6.9,8.2c1.6,2.8,2.6,5.7,2.9,8.6c0.3,2.8,0.2,5.6-0.5,8.2c-0.8,4.4-2.7,8.3-5.4,11.6c-2.6,3.2-5.7,5.8-9,7.8
				c-3.3,2-6.8,3.5-10.4,4.4C-833.3,1108.3-837,1108.6-840.3,1108.6z M-859.5,1072.6c-0.2,0-0.4,0-0.5,0c-1.8,0.1-3.4,0.5-5,1.2
				c-1.5,0.7-2.6,1.4-3.3,2.3c-1.5,1.7-2.3,3.5-2.6,5.4c-0.3,1.9,0,3.9,0.7,5.8c0.7,2.1,1.8,4,3.4,5.9c1.5,1.9,3.3,3.7,5.3,5.2
				c2,1.6,4.8,3,8.2,4.2c3.4,1.2,8.2,1.7,14.3,1.6c2.5,0,5.5-0.4,8.7-1.3c3.2-0.8,6.3-2.2,9.3-3.9c2.9-1.7,5.6-4,7.9-6.8
				c2.2-2.7,3.8-6,4.5-9.8c0.6-2.2,0.7-4.4,0.4-6.7c-0.3-2.3-1.1-4.6-2.4-7c-1.4-2.4-3.4-4.8-6-7.1c-2.7-2.4-6.2-4.6-10.5-6.7
				l-17.1-9.7c-1.2-0.7-2.1-1.5-2.8-2.5c-1.1-1.5-1.1-2.8-1-3.7c0.1-0.9,0.7-2.2,2.4-3.2c2.2-1.2,6.4-1.4,8.7,0.2
				c0.9,0.7,1.7,1.5,2.3,2.4c0.5,0.8,1,1.6,1.4,2.4c0.3,0.5,0.6,0.9,1,1.2c1.3,1.1,2.8,1.8,4.4,2.4c1.6,0.5,3.2,0.8,5,0.7
				c1.7,0,3.3-0.4,4.9-0.9c1.5-0.6,2.9-1.4,4.1-2.6c1.1-1.1,1.9-2.4,2.5-3.8c0.6-1.5,0.9-3.1,1-4.7c0.1-1.6-0.1-3.2-0.6-4.7
				c-0.5-1.5-1.2-2.8-2.2-4c-1.4-1.8-3.2-3.4-5.4-4.9c-2.2-1.5-4.6-2.7-7.1-3.8c-2.5-1-4.9-1.8-7.4-2.3c-2.4-0.5-4.6-0.8-6.3-0.8
				c-4.8,0-9.2,0.6-12.9,1.9c-3.7,1.3-7,3-9.7,5.3c-2.6,2.2-4.7,4.8-6.2,7.7c-1.5,3-2.5,6.3-2.8,9.8c-0.4,3.9-0.3,7.1,0.3,9.6
				c0.6,2.5,1.4,4.5,2.4,6.1c1,1.5,2.1,2.7,3.3,3.5c1.4,0.9,2.6,1.6,3.6,2.1c5.3,2.6,10,4.9,14,7c4.2,2.2,7.1,3.8,9.1,5.1
				c3.2,1.9,3.7,4.4,3.6,6.1c-0.2,2.6-1.8,4.4-4.4,4.9c-1,0.3-2.5,0.2-4.5-0.1c-2.3-0.3-4.3-1.7-6.1-3.9c-1.6-1.9-3.3-3.2-5.1-4
				C-856.2,1073-857.9,1072.6-859.5,1072.6z M-840.9,1039.3c-1.5,0-2.2,0.3-2.4,0.4l0,0l0,0.6c0.3,0.4,0.8,0.8,1.4,1.2l7.2,4.1
				c0,0-0.1,0-0.1-0.1c-0.8-0.7-1.5-1.6-2.1-2.6c-0.4-0.7-0.8-1.4-1.2-2.1c-0.3-0.5-0.7-0.9-1.2-1.2
				C-839.6,1039.4-840.1,1039.3-840.9,1039.3z"/>
		</g>
		<g>
			<path class="st4" d="M-987.2,1077.8c-2.3,0-4.3-0.8-5.9-2.4c-1.6-1.6-2.4-3.6-2.4-5.9v-44.6c-0.2-4.2-1.7-7.6-4.4-10.3
				c-2.7-2.7-6-4-9.9-4h-6.6c-3.3,0-5.6,0.5-6.9,1.4c-1.2,0.9-1.9,2.1-2.1,3.6c-0.2,1.5,0,3.1,0.4,5c0.4,1.8,0.7,3.7,0.8,5.5v43.6
				v22.7c0,4.1,1.4,7.5,4.1,10.2c2.7,2.7,6.1,4.1,10.2,4.1h35.3c1.9,0,3.8-0.4,5.6-1.1c1.8-0.8,3.3-1.8,4.6-3s2.3-2.8,3-4.5
				c0.8-1.7,1.1-3.6,1.1-5.6c0-4.1-1.4-7.5-4.2-10.2c-2.8-2.7-6.2-4.1-10.1-4.1h-11.8l-1.5-0.1"/>
			<path class="st5" d="M-974.5,1108.6h-35.3c-4.6,0-8.6-1.6-11.7-4.7c-3.2-3.2-4.8-7.1-4.8-11.7v-66.3c-0.1-1.6-0.3-3.3-0.7-5
				c-0.5-2.1-0.6-4-0.4-5.7c0.2-2.1,1.2-3.8,2.9-5.1c1.6-1.2,4.2-1.8,8.2-1.8h6.6c4.4,0,8.3,1.6,11.4,4.7c3.1,3.1,4.8,7,5.1,11.7
				l0,44.7c0,1.8,0.6,3.2,1.8,4.4c1.1,1.1,2.3,1.7,3.8,1.8v0l1.5,0h11.7c4.5,0,8.5,1.6,11.7,4.7c3.2,3.2,4.8,7.1,4.8,11.8
				c0,2.3-0.4,4.5-1.3,6.5c-0.9,1.9-2,3.7-3.5,5.1c-1.4,1.5-3.2,2.6-5.3,3.5C-970.2,1108.2-972.3,1108.6-974.5,1108.6z
				 M-1016.4,1012.6c-3.9,0-5.2,0.6-5.5,0.9c-0.7,0.6-1.1,1.2-1.2,2.1c-0.1,1.2,0,2.7,0.3,4.3c0.4,1.9,0.7,3.9,0.8,5.8l0,66.4
				c0,3.5,1.1,6.3,3.5,8.7c2.3,2.3,5.2,3.5,8.7,3.5h35.3c1.6,0,3.2-0.3,4.7-1c1.5-0.7,2.8-1.5,3.9-2.6c1.1-1.1,1.9-2.3,2.6-3.8
				c0.6-1.5,1-3,1-4.8c0-3.5-1.2-6.3-3.5-8.7c-2.4-2.4-5.2-3.5-8.6-3.5h-12.6c-2.9,0-5.5-1-7.5-3.1c-2-2-3.1-4.5-3.1-7.5v-44.6
				c-0.2-3.5-1.4-6.4-3.8-8.7c-2.3-2.3-5.1-3.4-8.4-3.4H-1016.4z"/>
		</g>
		<g>
			<g>
				<path class="st4" d="M-797.4,1069.4v-43.6c-0.1-1.8-0.4-3.7-0.8-5.5c-0.4-1.8-0.5-3.5-0.4-5c0.2-1.5,0.8-2.7,2.1-3.6
					c1.2-0.9,3.5-1.4,6.9-1.4h6.5c3.9,0,7.2,1.3,9.9,4c2.7,2.7,4.2,6.1,4.4,10.3v18.6h14.8l0.1-17.5c-0.1-1.8-0.4-3.7-0.8-5.5
					c-0.4-1.8-0.5-3.5-0.4-5c0.2-1.5,0.8-2.7,2.1-3.6c1.2-0.9,3.5-1.4,6.9-1.4h6.6c3.9,0,7.2,1.3,9.9,4c2.7,2.7,4.2,6.1,4.4,10.3
					v44.6"/>
				<path class="st5" d="M-723.1,1069.4h-4.4v-44.6c-0.2-3.5-1.4-6.4-3.8-8.7c-2.3-2.3-5.1-3.4-8.4-3.4h-6.6c-3.9,0-5.2,0.6-5.5,0.9
					c-0.7,0.6-1.1,1.2-1.2,2.1c-0.1,1.2,0,2.7,0.3,4.2c0.4,1.9,0.7,3.9,0.8,5.8l-0.1,19.8H-771v-20.8c-0.2-3.5-1.4-6.4-3.8-8.7
					c-2.3-2.3-5.1-3.4-8.4-3.4h-6.6c-3.9,0-5.2,0.7-5.5,0.9c-0.7,0.5-1.1,1.2-1.2,2.1c-0.1,1.2,0,2.7,0.3,4.2
					c0.4,1.9,0.7,3.9,0.8,5.8v43.7h-4.4v-43.6c-0.1-1.6-0.3-3.3-0.7-5c-0.5-2-0.6-3.9-0.4-5.6c0.2-2.1,1.2-3.8,2.9-5.1
					c1.7-1.2,4.3-1.8,8.2-1.8h6.6c4.4,0,8.3,1.6,11.4,4.7c3.1,3.1,4.8,7,5.1,11.7v16.5h10.5l0.1-15.4c-0.1-1.6-0.3-3.3-0.7-5
					c-0.5-2-0.6-3.9-0.4-5.6c0.2-2.1,1.2-3.8,2.9-5.1c1.7-1.2,4.2-1.8,8.2-1.8h6.6c4.4,0,8.3,1.6,11.4,4.7c3.1,3.1,4.8,7,5.1,11.7
					V1069.4z"/>
			</g>
			<g>
				<path class="st4" d="M-725.2,1047.5v43.6c0.1,1.8,0.4,3.7,0.8,5.5c0.4,1.8,0.5,3.5,0.4,4.9c-0.2,1.5-0.8,2.7-2.1,3.6
					c-1.2,0.9-3.5,1.4-6.9,1.4h-6.5c-3.9,0-7.2-1.3-9.9-4c-2.7-2.7-4.2-6.1-4.4-10.3l-0.1-20.2h-14.9l0.1,19.2
					c0.1,1.8,0.4,3.7,0.8,5.5c0.4,1.8,0.5,3.5,0.4,4.9c-0.2,1.5-0.8,2.7-2.1,3.6c-1.2,0.9-3.5,1.4-6.9,1.4h-6.6
					c-3.9,0-7.2-1.3-9.9-4c-2.7-2.7-4.2-6.1-4.4-10.3v-44.6"/>
				<path class="st5" d="M-733,1108.6h-6.6c-4.4,0-8.3-1.6-11.4-4.7c-3.1-3.1-4.8-7-5.1-11.7l-0.1-18.2h-10.5l0.1,17
					c0.1,1.6,0.3,3.3,0.7,5c0.5,2.1,0.6,4,0.4,5.6c-0.2,2.1-1.2,3.8-2.9,5.1c-1.7,1.2-4.2,1.8-8.2,1.8h-6.6c-4.4,0-8.3-1.6-11.4-4.7
					c-3.1-3.1-4.8-7-5.1-11.7l0-44.7h4.4v44.6c0.2,3.5,1.4,6.4,3.8,8.7c2.3,2.3,5.1,3.4,8.4,3.4h6.6c3.9,0,5.2-0.7,5.5-0.9
					c0.7-0.5,1.1-1.2,1.2-2.1c0.1-1.2,0-2.7-0.3-4.2c-0.4-1.9-0.7-3.9-0.8-5.8l-0.1-21.5h19.3l0.1,22.4c0.2,3.5,1.4,6.4,3.8,8.7
					c2.3,2.3,5.1,3.4,8.4,3.4h6.6c3.9,0,5.2-0.7,5.5-0.9c0.7-0.6,1.1-1.2,1.2-2.1c0.1-1.2,0-2.7-0.3-4.2c-0.4-1.9-0.7-3.9-0.8-5.8
					v-43.7h4.4v43.6c0.1,1.6,0.3,3.3,0.7,5c0.5,2,0.6,3.9,0.4,5.6c-0.2,2.1-1.2,3.8-2.9,5.1C-726.5,1108-729.1,1108.6-733,1108.6z"
					/>
			</g>
		</g>
		<g>
			<path class="st4" d="M-957.2,1025.8c-0.1-1.8-0.4-3.7-0.8-5.5c-0.4-1.8-0.5-3.5-0.4-5c0.2-1.5,0.8-2.7,2.1-3.6
				c1.2-0.9,3.5-1.4,6.9-1.4h6.5c3.9,0,7.2,1.3,9.9,4c2.7,2.7,4.2,6.1,4.4,10.3v44.6c0,2.3,0.8,4.3,2.4,5.9c1.6,1.6,3.6,2.4,5.9,2.4
				c2.1,0,4.1-0.8,5.8-2.4c1.7-1.6,2.6-3.6,2.6-5.9v-43.6c-0.1-1.8-0.4-3.7-0.8-5.5c-0.4-1.8-0.5-3.5-0.4-5c0.2-1.5,0.8-2.7,2.1-3.6
				c1.2-0.9,3.5-1.4,6.9-1.4h6.6c1.8,0,3.6,0.4,5.3,1.1c1.7,0.7,3.2,1.7,4.6,3c1.3,1.3,2.4,2.8,3.2,4.6c0.8,1.8,1.2,3.7,1.2,5.7
				v44.6c-0.1,5.1-1.1,9.9-3.1,14.3c-2,4.5-4.6,8.4-8,11.7c-3.3,3.3-7.3,6-11.7,8c-4.5,2-9.2,3-14.2,3c-5.1,0-9.9-1-14.4-2.9
				c-4.5-1.9-8.5-4.6-11.8-7.9c-3.4-3.3-6-7.3-7.9-11.8c-1.9-4.5-2.9-9.3-2.9-14.4V1025.8z"/>
			<path class="st5" d="M-920.2,1108.6c-5.4,0-10.5-1-15.3-3.1c-4.7-2-8.9-4.8-12.5-8.4c-3.5-3.5-6.4-7.7-8.4-12.5
				c-2-4.8-3.1-9.9-3.1-15.3v-43.5c-0.1-1.7-0.3-3.4-0.7-5.1c-0.5-2.1-0.6-4-0.4-5.7c0.2-2.1,1.2-3.8,2.9-5.1
				c1.7-1.2,4.3-1.8,8.2-1.8h6.5c4.4,0,8.3,1.6,11.4,4.7c3.1,3.1,4.8,7,5.1,11.7l0,44.7c0,1.8,0.6,3.2,1.8,4.4
				c2.3,2.3,5.9,2.6,8.7,0c1.3-1.2,1.9-2.6,1.9-4.4v-43.6c-0.1-1.6-0.3-3.3-0.7-5c-0.5-2-0.6-3.9-0.4-5.7c0.2-2.1,1.2-3.8,2.9-5.1
				c1.7-1.2,4.3-1.8,8.2-1.8h6.6c2.1,0,4.2,0.4,6.2,1.2c2,0.8,3.8,2,5.3,3.4c1.5,1.5,2.7,3.2,3.7,5.2c0.9,2.1,1.4,4.3,1.4,6.6v44.6
				c-0.1,5.4-1.2,10.5-3.3,15.2c-2.1,4.7-4.9,8.9-8.5,12.4c-3.5,3.5-7.7,6.4-12.4,8.4C-909.9,1107.5-914.9,1108.6-920.2,1108.6z
				 M-949.4,1012.6c-3.9,0-5.2,0.7-5.6,0.9c-0.7,0.5-1.1,1.2-1.2,2.1c-0.1,1.2,0,2.7,0.3,4.3c0.4,1.9,0.7,3.9,0.8,5.8l0,0.1v43.6
				c0,4.8,0.9,9.3,2.7,13.5c1.8,4.2,4.3,8,7.5,11.1c3.1,3.1,6.9,5.7,11.1,7.5c8.3,3.6,18.4,3.7,26.8-0.1c4.2-1.9,7.9-4.4,11.1-7.5
				c3.1-3.1,5.7-6.9,7.6-11.1c1.9-4.2,2.8-8.7,2.9-13.5v-44.6c0-1.7-0.3-3.3-1-4.8c-0.7-1.5-1.6-2.8-2.7-3.9
				c-1.1-1.1-2.4-1.9-3.9-2.5c-1.4-0.6-3-0.9-4.5-0.9h-6.6c-3.9,0-5.2,0.7-5.6,0.9c-0.7,0.6-1.1,1.2-1.2,2.1c-0.1,1.2,0,2.7,0.3,4.3
				c0.4,1.9,0.7,3.9,0.8,5.8l0,43.7c0,3-1.1,5.5-3.3,7.5c-4.4,4.2-10.8,3.9-14.8-0.1c-2-2-3.1-4.5-3.1-7.5v-44.6
				c-0.2-3.5-1.4-6.4-3.8-8.7c-2.3-2.3-5.1-3.4-8.4-3.4H-949.4z"/>
		</g>
	</g>
	<g>
		<g>
			<polygon class="st6" points="-833.9,269.5 -776.7,271.3 -773,97.9 -830.1,96.2 			"/>
		</g>
		<g>
			<polygon class="st4" points="-822.4,270.3 -801.6,270.9 -797.9,97.6 -818.7,96.9 			"/>
		</g>
		<g>
			<polygon class="st4" points="-848.3,688.6 -791.1,690.4 -776.6,270 -833.8,268.1 			"/>
		</g>
		<g class="st7">
			<rect x="-1182.3" y="577.1" class="st0" width="748.3" height="26.3"/>
		</g>
		<g class="st7">
			<path class="st0" d="M-1092.1,370c46.4-61.5,103.3-89.5,127.7-99.4c7.3-2.9,15.1-4.4,23-4.4h273c6.1,0,12,1.1,17.7,3.3
				c22.6,8.7,82.4,36.4,130.7,100.5c61,80.8,56.3,144.1,56.3,144.1h14.7c1.6,0,2.9,1.3,2.9,2.8v13.8c0,1.6,24.5,5.1,22.9,5.1h-9.9
				c-2.5,0-4.1,2.5-3.1,4.6c9.7,20.4,7.6,26.1,7.6,26.1v10.5h-755.3v-10.5"/>
		</g>
		<g class="st7">
			<rect x="-1142.6" y="600.8" class="st0" width="668.7" height="87.7"/>
		</g>
		<g>
			<path class="st5" d="M-467.3,654.6h-681.8v-53.7h681.8V654.6z M-1136,641.4h655.6V614H-1136V641.4z"/>
		</g>
	</g>
	<g>
		<path class="st5" d="M-803.7,1413.2c-177.8,0-344.9-69.2-470.6-194.9c-125.7-125.7-194.9-292.8-194.9-470.6
			c0-177.8,69.2-344.9,194.9-470.6c125.7-125.7,292.8-194.9,470.6-194.9c177.8,0,344.9,69.2,470.6,194.9S-138.2,570-138.2,747.7
			c0,177.8-69.2,344.9-194.9,470.6C-458.8,1344-625.9,1413.2-803.7,1413.2 M-803.7,112c-169.8,0-329.5,66.1-449.5,186.2
			c-120.1,120.1-186.2,279.7-186.2,449.5c0,169.8,66.1,329.5,186.2,449.5c120.1,120.1,279.7,186.2,449.5,186.2
			c169.8,0,329.5-66.1,449.5-186.2C-234.1,1077.2-168,917.6-168,747.7c0-169.8-66.1-329.5-186.2-449.5
			C-474.2,178.1-633.9,112-803.7,112"/>
	</g>
	<g>
		<path class="st5" d="M-492.2,672.5v428.6c0,36.2-29.5,65.7-65.7,65.7h-493.7c-36.2,0-65.7-29.5-65.7-65.7V672.5h-37.2v428.6
			c0,56.7,46.1,102.9,102.9,102.9h493.7c56.7,0,102.9-46.1,102.9-102.9V672.5H-492.2z"/>
	</g>
	<g>
		<path class="st5" d="M-409.4,492.2v146.2h-39.2v63.3h-37.3V601.1h39.2v-71.6h-25.8l-0.1-18.5c0-1.4-2.7-141-146.3-214.3
			c-2.1-1.1-4.5-1.6-7-1.6h-353.4c-2.5,0-5,0.6-7,1.6C-1130,370-1132.7,509.6-1132.7,511l-0.1,18.5h-25.8v71.6h39.2v100.6h-37.3
			v-63.3h-39.2V492.2h27.3c5.5-45.1,32.7-161.1,165.2-228.7c7.3-3.7,15.6-5.7,24-5.7H-626c8.4,0,16.7,2,24,5.7
			c132.6,67.6,159.7,183.6,165.2,228.7H-409.4z"/>
	</g>
	<g>
		<rect x="-1224.9" y="691.8" class="st2" width="837.9" height="247.9"/>
	</g>
	<g>
		<path class="st5" d="M-367.2,959.5h-877.6V671.9h877.6V959.5z M-1205.1,919.8h798.2V711.6h-798.2V919.8z"/>
	</g>
	<g>
		<g>
			<path class="st5" d="M-1089.5,744.4c5.6,0,10.4,1.9,14.3,5.8c4,3.9,5.9,8.7,5.9,14.4c0,2.9-0.5,5.5-1.6,8
				c-1.1,2.4-2.5,4.6-4.3,6.4c-1.8,1.8-4,3.2-6.5,4.3c-2.5,1.1-5.1,1.6-7.9,1.6h-12.7l-0.4,75.1c0,5.7-1.9,10.6-5.7,14.4
				c-3.8,3.9-8.5,5.8-14.1,5.8c-5.8,0-10.5-1.9-14.2-5.8c-3.7-3.9-5.6-8.7-5.6-14.4l-0.4-75.1h-12.7c-5.8,0-10.6-2-14.5-5.9
				c-3.9-4-5.8-8.7-5.8-14.3c0-5.8,1.9-10.6,5.8-14.4c3.9-3.9,8.7-5.8,14.5-5.8H-1089.5z"/>
		</g>
		<g>
			<path class="st5" d="M-1060.4,766.2c-0.1-2.6-0.5-5.2-1.1-7.8c-0.6-2.6-0.8-4.9-0.5-7c0.2-2.1,1.2-3.8,2.9-5.1
				c1.7-1.3,5-1.9,9.7-1.9h9.3c5.5,0,10.1,1.9,14,5.7c3.9,3.8,6,8.7,6.3,14.6v63.2c0,3.3,1.1,6.1,3.5,8.4c2.3,2.3,5.1,3.4,8.4,3.4
				c3,0,5.7-1.1,8.2-3.4c2.4-2.3,3.7-5.1,3.7-8.4v-61.7c-0.1-2.6-0.5-5.2-1.1-7.8c-0.6-2.6-0.8-4.9-0.5-7c0.2-2.1,1.2-3.8,2.9-5.1
				c1.7-1.3,5-1.9,9.7-1.9h9.3c2.6,0,5.1,0.5,7.5,1.5c2.4,1,4.6,2.4,6.5,4.2c1.9,1.8,3.4,4,4.5,6.5c1.1,2.5,1.7,5.2,1.7,8.1v63.2
				c-0.1,7.2-1.6,13.9-4.4,20.3c-2.8,6.3-6.6,11.9-11.3,16.6c-4.7,4.7-10.3,8.5-16.6,11.3c-6.3,2.8-13,4.2-20.1,4.2
				c-7.2,0-14-1.4-20.4-4.1c-6.4-2.7-12-6.5-16.7-11.2c-4.7-4.7-8.5-10.3-11.2-16.7c-2.7-6.4-4.1-13.2-4.1-20.4V766.2z"/>
		</g>
		<g>
			<path class="st5" d="M-940.7,766.2c-0.1-2.4-0.5-5-1.1-7.6c-0.6-2.6-0.8-4.9-0.6-6.9c0.1-2,1-3.7,2.7-5.1c1.7-1.4,4.6-2.1,9-2.3
				h44.9c5.8,0,11.2,1.1,16.3,3.3c5.1,2.2,9.5,5.2,13.3,8.9c3.7,3.7,6.7,8.2,9,13.3c2.2,5.1,3.3,10.5,3.3,16.3
				c0,4.3-0.6,8.4-1.8,12.2c-1.2,3.8-3,7.3-5.3,10.5c3,3.6,5.4,7.7,7.2,12.2c1.8,4.5,2.7,9.5,2.7,14.8c0,6.2-1.2,12-3.6,17.4
				c-2.4,5.4-5.6,10.1-9.6,14.1c-4,4-8.7,7.2-14.1,9.5c-5.4,2.3-11.2,3.4-17.4,3.4h-34.5c-2.9,0-5.5-0.5-8-1.6
				c-2.4-1.1-4.6-2.5-6.4-4.3c-1.8-1.8-3.2-3.9-4.3-6.4c-1.1-2.4-1.6-5.1-1.6-8V766.2z M-900.2,781.3V794h0.9l14-0.4
				c1.3-0.1,2.4-0.7,3.4-1.6c1-0.9,1.5-2.2,1.5-3.8c0-2-0.6-3.6-1.7-4.7c-1.2-1.1-2.4-1.7-3.9-1.7l-13.4-0.4H-900.2z M-900.2,825.3
				v14.9h0.9l13.4-0.4c1.6,0,3.2-0.4,4.9-1.3c1.7-0.9,2.5-2.6,2.5-5.2c0-2.4-0.7-4.2-2.2-5.4c-1.4-1.2-2.9-1.9-4.5-2.2l-14-0.4
				H-900.2z"/>
		</g>
		<g>
			<path class="st5" d="M-835.2,766.2c-0.1-2.4-0.5-5-1.1-7.6c-0.6-2.6-0.8-4.9-0.6-6.9c0.1-2,1-3.7,2.7-5.1c1.7-1.4,4.6-2.1,9-2.3
				h44.9c5.7,0,11.2,1.1,16.3,3.3c5.1,2.2,9.5,5.2,13.3,8.9c3.7,3.7,6.7,8.2,9,13.3c2.2,5.1,3.3,10.5,3.3,16.3
				c0,4.3-0.6,8.4-1.8,12.2c-1.2,3.8-3,7.3-5.3,10.5c3,3.6,5.4,7.7,7.2,12.2c1.8,4.5,2.7,9.5,2.7,14.8c0,6.2-1.2,12-3.6,17.4
				c-2.4,5.4-5.6,10.1-9.6,14.1c-4,4-8.7,7.2-14.1,9.5c-5.4,2.3-11.2,3.4-17.4,3.4H-815c-2.9,0-5.5-0.5-8-1.6
				c-2.4-1.1-4.6-2.5-6.4-4.3c-1.8-1.8-3.2-3.9-4.3-6.4c-1.1-2.4-1.6-5.1-1.6-8V766.2z M-794.7,781.3V794h0.9l14-0.4
				c1.3-0.1,2.4-0.7,3.4-1.6c1-0.9,1.5-2.2,1.5-3.8c0-2-0.6-3.6-1.7-4.7c-1.1-1.1-2.4-1.7-3.9-1.7l-13.4-0.4H-794.7z M-794.7,825.3
				v14.9h0.9l13.4-0.4c1.6,0,3.2-0.4,4.9-1.3c1.7-0.9,2.5-2.6,2.5-5.2c0-2.4-0.7-4.2-2.2-5.4c-1.4-1.2-2.9-1.9-4.5-2.2l-14-0.4
				H-794.7z"/>
		</g>
		<g>
			<path class="st5" d="M-659.5,744.4c5.6,0,10.4,1.9,14.3,5.8c4,3.9,5.9,8.7,5.9,14.4c0,2.9-0.5,5.5-1.6,8
				c-1.1,2.4-2.5,4.6-4.3,6.4c-1.8,1.8-4,3.2-6.5,4.3c-2.5,1.1-5.1,1.6-7.9,1.6h-29.8v7.1h15.5c5.6,0,10.4,1.9,14.3,5.8
				c4,3.9,5.9,8.7,5.9,14.4c0,2.9-0.5,5.5-1.6,8c-1.1,2.4-2.5,4.6-4.3,6.4c-1.8,1.8-4,3.2-6.5,4.3c-2.5,1.1-5.1,1.6-7.9,1.6h-15.5
				v7.1h29.8c5.6,0,10.4,1.9,14.3,5.8c4,3.9,5.9,8.7,5.9,14.5c0,2.9-0.5,5.5-1.6,8c-1.1,2.4-2.5,4.6-4.3,6.4c-1.8,1.8-4,3.2-6.5,4.3
				c-2.5,1.1-5.1,1.6-7.9,1.6h-50c-5.7,0-10.6-1.9-14.5-5.8c-3.9-3.9-5.8-8.7-5.8-14.4v-93.8c-0.1-2.6-0.5-5.2-1.1-7.8
				c-0.6-2.6-0.7-4.9-0.5-7c0.2-2.1,1.2-3.8,2.9-5.1c1.7-1.3,5-1.9,9.7-1.9H-659.5z"/>
		</g>
		<g>
			<path class="st5" d="M-562.4,744.4c5.6,0,10.4,1.9,14.3,5.8c4,3.9,5.9,8.7,5.9,14.4c0,2.9-0.5,5.5-1.6,8
				c-1.1,2.4-2.5,4.6-4.3,6.4c-1.8,1.8-4,3.2-6.5,4.3c-2.5,1.1-5.1,1.6-7.9,1.6h-29.8v7.1h15.5c5.6,0,10.4,1.9,14.3,5.8
				c4,3.9,5.9,8.7,5.9,14.4c0,2.9-0.5,5.5-1.6,8c-1.1,2.4-2.5,4.6-4.3,6.4c-1.8,1.8-4,3.2-6.5,4.3c-2.5,1.1-5.2,1.6-7.9,1.6h-15.5
				v7.1h29.8c5.6,0,10.4,1.9,14.3,5.8c4,3.9,5.9,8.7,5.9,14.5c0,2.9-0.5,5.5-1.6,8c-1.1,2.4-2.5,4.6-4.3,6.4c-1.8,1.8-4,3.2-6.5,4.3
				c-2.5,1.1-5.1,1.6-7.9,1.6h-50c-5.7,0-10.6-1.9-14.4-5.8c-3.9-3.9-5.8-8.7-5.8-14.4v-93.8c-0.1-2.6-0.5-5.2-1.1-7.8
				c-0.6-2.6-0.8-4.9-0.5-7c0.2-2.1,1.2-3.8,2.9-5.1c1.7-1.3,5-1.9,9.7-1.9H-562.4z"/>
		</g>
		<g>
			<path class="st5" d="M-538.9,782.2c0.6-5.3,2-10.3,4.3-14.9c2.3-4.6,5.5-8.6,9.6-12c4.1-3.4,9-6,14.7-8
				c5.7-1.9,12.1-2.9,19.3-2.9c2.7,0,5.9,0.4,9.6,1.2c3.7,0.8,7.3,1.9,11,3.4c3.7,1.5,7.2,3.4,10.6,5.6c3.4,2.2,6.1,4.7,8.3,7.4
				c1.7,2,3,4.3,3.8,6.8c0.8,2.5,1.1,5.1,1,7.8c-0.1,2.7-0.7,5.2-1.6,7.7c-0.9,2.4-2.3,4.6-4.2,6.5c-2,2-4.3,3.5-6.9,4.4
				c-2.6,0.9-5.2,1.4-8,1.5c-2.7,0.1-5.4-0.3-8.1-1.2c-2.7-0.9-5.1-2.2-7.2-3.9c-0.9-0.7-1.6-1.6-2.2-2.7c-0.6-1.1-1.2-2.1-1.8-3.1
				c-0.6-1-1.5-1.9-2.5-2.6c-1-0.7-2.4-1.1-4.1-1.1c-2.2,0-3.8,0.3-5,1c-1.1,0.6-1.8,1.4-1.9,2.4c-0.2,0.9,0.1,1.9,0.9,2.9
				c0.7,1,1.7,1.9,3,2.6l23.9,13.6c6.3,3,11.5,6.3,15.5,9.9c4,3.6,7.1,7.2,9.2,10.9c2.1,3.7,3.3,7.3,3.8,11
				c0.4,3.7,0.2,7.2-0.7,10.5c-1.1,5.9-3.5,11-7,15.2c-3.5,4.2-7.5,7.7-12,10.4c-4.5,2.7-9.1,4.6-13.9,5.9c-4.8,1.3-9.2,1.9-13,1.9
				c-9.1,0.1-16.2-0.7-21.4-2.5c-5.2-1.8-9.3-3.9-12.5-6.4c-3-2.3-5.7-4.9-8.1-7.9c-2.4-3-4.1-6-5.3-9.3c-1.1-3.2-1.5-6.5-1.1-9.7
				c0.4-3.2,1.9-6.3,4.3-9.2c1.3-1.6,3.2-3,5.7-4.1c2.5-1.1,5.2-1.8,8.2-1.9c2.9-0.1,6,0.4,9.1,1.6c3.1,1.2,5.9,3.4,8.5,6.6
				c2,2.6,4.2,4.1,6.7,4.4c2.4,0.4,4.2,0.4,5.4,0.1c2.3-0.4,3.5-1.8,3.7-4.1c0.1-2.3-1.1-4.2-3.7-5.8c-2.7-1.7-6.9-4.1-12.6-7
				c-5.7-3-12.3-6.2-19.7-9.8c-1.6-0.7-3.4-1.8-5.5-3.1c-2.1-1.4-4-3.3-5.6-5.8c-1.7-2.5-2.9-5.7-3.9-9.6
				C-539.3,792.9-539.5,788.1-538.9,782.2"/>
		</g>
	</g>
	<g>
		<g>
			<path class="st4" d="M-1122.5,882.8c-6.4,0-11.8-2.2-16-6.6c-4.2-4.3-6.3-9.8-6.3-16.2l-0.4-72.6h-10.3c-6.4,0-11.9-2.2-16.2-6.7
				c-4.3-4.4-6.5-9.8-6.5-16.1c0-6.4,2.2-11.9,6.5-16.2c4.3-4.3,9.8-6.5,16.2-6.5h66c6.2,0,11.7,2.2,16.1,6.5
				c4.4,4.3,6.7,9.8,6.7,16.2c0,3.2-0.6,6.2-1.8,9c-1.2,2.7-2.8,5.1-4.8,7.1c-2,2-4.4,3.6-7.2,4.8c-2.8,1.2-5.8,1.8-8.8,1.8h-10.3
				l-0.4,72.6c0,6.4-2.2,11.8-6.4,16.2C-1110.9,880.6-1116.2,882.8-1122.5,882.8 M-1155.5,746.9c-5.1,0-9.3,1.7-12.7,5.1
				c-3.4,3.4-5.1,7.6-5.1,12.7c0,5,1.7,9.1,5.1,12.6c3.4,3.5,7.6,5.2,12.7,5.2h15.2l0.4,77.5c0,5.1,1.6,9.3,4.9,12.7
				c3.3,3.4,7.4,5.1,12.4,5.1c5,0,9-1.7,12.4-5.1c3.4-3.4,5-7.6,5-12.7l0.4-77.5h15.2c2.4,0,4.7-0.5,6.9-1.4c2.2-1,4.1-2.2,5.7-3.8
				c1.6-1.6,2.9-3.5,3.8-5.6c0.9-2.1,1.4-4.5,1.4-7c0-5.1-1.7-9.3-5.2-12.7c-3.5-3.4-7.6-5.1-12.6-5.1H-1155.5z"/>
		</g>
		<g>
			<path class="st4" d="M-1008,882.8c-7.5,0-14.7-1.4-21.4-4.3c-6.7-2.8-12.5-6.8-17.5-11.7c-4.9-4.9-8.9-10.8-11.7-17.5
				c-2.9-6.7-4.3-13.9-4.3-21.4v-61.6c-0.1-2.4-0.5-4.9-1-7.3c-0.6-2.8-0.8-5.5-0.6-7.8c0.3-2.8,1.6-5.1,3.9-6.8
				c2.2-1.6,5.8-2.4,11.2-2.4h9.3c6.1,0,11.4,2.2,15.8,6.4c4.3,4.2,6.7,9.7,7,16.2l0,63.3c0,2.7,0.9,4.8,2.7,6.7
				c1.8,1.8,4,2.7,6.7,2.7c2.4,0,4.5-0.9,6.5-2.8c1.9-1.8,2.9-4,2.9-6.6v-61.7c-0.1-2.3-0.5-4.8-1-7.2c-0.6-2.8-0.8-5.5-0.6-7.8
				c0.3-2.8,1.6-5.1,3.9-6.8c2.2-1.6,5.8-2.4,11.2-2.4h9.3c2.9,0,5.8,0.6,8.5,1.7c2.7,1.1,5.2,2.7,7.2,4.7c2.1,2,3.8,4.4,5.1,7.2
				c1.3,2.8,1.9,5.9,1.9,9.1v63.2c-0.1,7.5-1.7,14.7-4.6,21.3c-2.9,6.6-6.9,12.4-11.8,17.4c-4.9,4.9-10.8,8.9-17.4,11.8
				C-993.5,881.3-1000.6,882.8-1008,882.8 M-1049.4,746.9c-5.5,0-7.5,0.9-8.2,1.4c-1.2,0.9-1.8,1.9-1.9,3.3c-0.2,1.8,0,3.9,0.5,6.2
				c0.6,2.7,1,5.5,1.1,8.2v0.1v61.7c0,6.8,1.3,13.4,3.9,19.4c2.6,6.1,6.2,11.4,10.7,15.9c4.5,4.5,9.9,8.1,15.9,10.7
				c6.1,2.6,12.6,3.9,19.4,3.9c6.7,0,13.1-1.3,19.1-4c6-2.7,11.4-6.3,15.9-10.8c4.5-4.5,8.1-9.8,10.8-15.9c2.7-6,4.1-12.5,4.2-19.3
				v-63.1c0-2.5-0.5-4.9-1.5-7.1c-1-2.2-2.4-4.1-4-5.7c-1.6-1.6-3.5-2.8-5.7-3.7c-2.1-0.9-4.4-1.3-6.6-1.3h-9.3
				c-5.5,0-7.5,0.9-8.2,1.4c-1.2,0.9-1.8,1.9-1.9,3.3c-0.2,1.8,0,3.9,0.5,6.2c0.6,2.7,1,5.5,1.1,8.2l0,61.8c0,4-1.5,7.4-4.4,10.2
				c-2.9,2.7-6.2,4.1-9.9,4.1c-4,0-7.4-1.4-10.2-4.2c-2.8-2.8-4.2-6.2-4.2-10.2v-63.2c-0.3-5.2-2.1-9.4-5.5-12.8
				c-3.4-3.4-7.5-5-12.3-5H-1049.4z"/>
		</g>
		<g>
			<path class="st4" d="M-885.9,882.8h-34.5c-3.2,0-6.2-0.6-9-1.8c-2.7-1.2-5.1-2.8-7.1-4.8c-2-2-3.6-4.4-4.8-7.1
				c-1.2-2.8-1.8-5.8-1.8-9v-93.7c-0.1-2.3-0.5-4.7-1-7.1c-0.6-2.8-0.9-5.4-0.7-7.6c0.2-2.7,1.4-5,3.6-6.8c2.1-1.7,5.5-2.7,10.4-2.8
				h44.9c6.1,0,11.9,1.2,17.3,3.5c5.4,2.3,10.1,5.5,14,9.5c3.9,3.9,7.1,8.7,9.5,14c2.4,5.4,3.5,11.2,3.5,17.3
				c0,4.5-0.7,8.9-1.9,12.9c-1.1,3.4-2.6,6.6-4.6,9.6c2.6,3.4,4.8,7.2,6.4,11.4c1.9,4.8,2.9,10.1,2.9,15.7c0,6.5-1.3,12.7-3.8,18.4
				c-2.5,5.6-5.9,10.7-10.1,14.9c-4.2,4.2-9.2,7.6-14.9,10C-873.3,881.5-879.4,882.8-885.9,882.8 M-930.8,746.9
				c-4.8,0.2-6.7,1.1-7.4,1.7c-1.1,0.9-1.7,2-1.8,3.3c-0.1,1.8,0.1,3.8,0.6,6.2c0.6,2.7,1,5.4,1.1,7.9l0,0.1V860
				c0,2.5,0.5,4.9,1.4,7c1,2.2,2.2,4,3.8,5.6c1.6,1.6,3.5,2.9,5.6,3.8c2.1,0.9,4.5,1.4,7,1.4h34.5c5.8,0,11.3-1.1,16.4-3.3
				c5.1-2.2,9.6-5.2,13.3-9c3.8-3.8,6.8-8.3,9.1-13.4c2.2-5.1,3.3-10.6,3.3-16.4c0-5-0.8-9.6-2.5-13.9c-1.7-4.3-4-8.1-6.8-11.5
				l-1.2-1.5l1.1-1.6c2.1-2.9,3.8-6.2,4.9-9.8c1.1-3.6,1.7-7.4,1.7-11.4c0-5.4-1.1-10.5-3.1-15.3c-2.1-4.8-4.9-9-8.4-12.5
				c-3.5-3.5-7.7-6.3-12.5-8.4c-4.8-2.1-9.9-3.1-15.3-3.1H-930.8z M-900.1,842.7h-2.5v-19.8h3.3l14.5,0.5c2,0.4,3.9,1.3,5.6,2.7
				c2,1.6,3.1,4.1,3.1,7.3c0,4.4-2.1,6.5-3.8,7.4c-2,1-4,1.6-6,1.6L-900.1,842.7z M-897.7,827.8v9.8l11.7-0.4c1.2,0,2.5-0.3,3.8-1
				c0.3-0.1,1.1-0.6,1.1-3c0-2.5-0.9-3.2-1.2-3.5c-1.1-0.9-2.1-1.4-3.3-1.6L-897.7,827.8z M-900.1,796.5h-2.5v-17.7h3.3l13.4,0.4h0
				c2,0,3.9,0.8,5.6,2.4c1.6,1.6,2.5,3.8,2.5,6.5c0,2.3-0.8,4.2-2.3,5.6c-1.4,1.3-3,2.1-4.9,2.3L-900.1,796.5z M-897.7,783.8v7.7
				l12.3-0.4c0.6-0.1,1.2-0.4,1.8-1c0.3-0.3,0.7-0.8,0.7-2c0-1.3-0.3-2.3-1-3c-0.9-0.9-1.6-1-2.1-1L-897.7,783.8z"/>
		</g>
		<g>
			<path class="st4" d="M-780.5,882.8H-815c-3.2,0-6.2-0.6-9-1.8c-2.7-1.2-5.1-2.8-7.1-4.8c-2-2-3.6-4.4-4.8-7.1
				c-1.2-2.8-1.8-5.8-1.8-9v-93.7c-0.1-2.3-0.5-4.7-1-7.1c-0.6-2.8-0.9-5.4-0.7-7.6c0.2-2.7,1.4-5,3.6-6.8c2.1-1.7,5.5-2.7,10.4-2.8
				h44.9c6.1,0,11.9,1.2,17.3,3.5c5.4,2.3,10.1,5.5,14,9.5c3.9,3.9,7.1,8.7,9.5,14c2.4,5.4,3.5,11.2,3.5,17.3c0,4.5-0.6,8.9-2,12.9
				c-1.1,3.4-2.6,6.6-4.6,9.6c2.6,3.4,4.8,7.2,6.4,11.4c1.9,4.8,2.9,10.1,2.9,15.7c0,6.5-1.3,12.7-3.8,18.4
				c-2.5,5.6-5.9,10.7-10.1,14.9c-4.2,4.2-9.2,7.6-14.9,10C-767.8,881.5-774,882.8-780.5,882.8 M-825.3,746.9
				c-4.8,0.2-6.7,1.1-7.4,1.7c-1.1,0.9-1.7,2-1.8,3.3c-0.1,1.8,0.1,3.8,0.6,6.2c0.6,2.7,1,5.4,1.1,7.9l0,0.1V860
				c0,2.5,0.5,4.9,1.4,7c0.9,2.2,2.2,4,3.8,5.6c1.6,1.6,3.5,2.9,5.6,3.8c2.1,0.9,4.5,1.4,7,1.4h34.5c5.8,0,11.3-1.1,16.4-3.3
				c5.1-2.2,9.6-5.2,13.3-9c3.8-3.8,6.8-8.3,9.1-13.4c2.2-5.1,3.3-10.6,3.3-16.4c0-5-0.8-9.6-2.5-13.9c-1.7-4.3-4-8.1-6.8-11.5
				l-1.2-1.5l1.1-1.6c2.1-2.9,3.8-6.2,4.9-9.8c1.1-3.6,1.7-7.4,1.7-11.4c0-5.4-1.1-10.5-3.1-15.3c-2.1-4.8-4.9-9-8.4-12.5
				c-3.5-3.5-7.7-6.3-12.5-8.4c-4.8-2.1-9.9-3.1-15.3-3.1H-825.3z M-794.7,842.7h-2.5v-19.8h3.3l14.5,0.5c2,0.4,3.9,1.3,5.6,2.7
				c2.1,1.6,3.1,4.1,3.1,7.3c0,4.4-2.1,6.5-3.8,7.4c-2,1-4,1.6-6,1.6L-794.7,842.7z M-792.2,827.8v9.8l11.7-0.4c1.3,0,2.5-0.3,3.8-1
				c0.3-0.1,1.1-0.6,1.1-3c0-2.5-0.9-3.2-1.2-3.5c-1.1-0.9-2.1-1.4-3.3-1.6L-792.2,827.8z M-794.7,796.5h-2.5v-17.7h3.3l13.4,0.4h0
				c2,0,3.9,0.8,5.5,2.4c1.6,1.6,2.5,3.8,2.5,6.5c0,2.3-0.8,4.2-2.3,5.6c-1.4,1.3-3,2.1-4.9,2.3L-794.7,796.5z M-792.2,783.8v7.7
				l12.3-0.4c0.6-0.1,1.2-0.4,1.8-1c0.3-0.3,0.7-0.8,0.7-2c0-1.3-0.3-2.3-1-3c-0.9-0.9-1.6-1-2.1-1L-792.2,783.8z"/>
		</g>
		<g>
			<path class="st4" d="M-659.5,882.8h-50c-6.4,0-11.9-2.2-16.2-6.5c-4.3-4.3-6.5-9.8-6.5-16.2v-93.8c-0.1-2.3-0.5-4.8-1-7.2
				c-0.6-2.8-0.8-5.5-0.6-7.8c0.3-2.8,1.6-5.1,3.9-6.8c2.2-1.6,5.8-2.4,11.2-2.4h59.3c6.3,0,11.7,2.2,16.1,6.5
				c4.4,4.3,6.7,9.8,6.7,16.2c0,3.2-0.6,6.2-1.8,9c-1.2,2.7-2.8,5.1-4.8,7.1c-2,2-4.5,3.6-7.2,4.8c-2.8,1.2-5.8,1.8-8.8,1.8h-27.3
				v2.2h13c6.3,0,11.7,2.2,16.1,6.5c4.4,4.4,6.7,9.8,6.7,16.2c0,3.2-0.6,6.2-1.8,9c-1.2,2.7-2.8,5.1-4.8,7.1c-2,2-4.4,3.6-7.2,4.8
				c-2.8,1.2-5.8,1.8-8.8,1.8h-13v2.2h27.3c6.3,0,11.7,2.2,16.1,6.5c4.4,4.3,6.7,9.8,6.7,16.2c0,3.2-0.6,6.2-1.8,9
				c-1.2,2.7-2.8,5.1-4.8,7.1c-2,2-4.5,3.6-7.2,4.8C-653.4,882.2-656.4,882.8-659.5,882.8 M-718.8,746.9c-5.5,0-7.5,0.9-8.2,1.4
				c-1.2,0.9-1.8,1.9-1.9,3.3c-0.2,1.8,0,3.9,0.5,6.2c0.6,2.7,1,5.5,1.1,8.2l0,94c0,5.1,1.7,9.3,5.1,12.7c3.4,3.4,7.6,5.1,12.7,5.1
				h50c2.4,0,4.7-0.5,6.9-1.4c2.2-0.9,4.1-2.2,5.7-3.8c1.6-1.6,2.9-3.5,3.8-5.6c0.9-2.1,1.4-9.6,1.4-12.1c0-5.1-1.7-4.1-5.2-7.6
				c-3.5-3.4-7.6-5.1-12.6-5.1h-32.2v-12.1h18c2.4,0,4.7-0.5,6.9-1.4c2.2-0.9,4.1-2.2,5.7-3.8c1.6-1.6,2.9-3.5,3.8-5.6
				c0.9-2.1,1.4-4.5,1.4-7c0-5.1-1.7-9.3-5.2-12.7c-3.5-3.4-7.6-5.1-12.6-5.1h-18v-12.1h32.2c2.4,0,4.7-0.5,6.9-1.4
				c2.2-1,4.1-2.2,5.7-3.8c1.6-1.6,2.9-3.5,3.8-5.6c0.9-2.1,1.4-4.5,1.4-7c0-5.1-1.7-9.3-5.2-12.7c-3.5-3.4-7.6-5.1-12.6-5.1H-718.8
				z"/>
		</g>
		<g>
			<path class="st4" d="M-562.4,882.8h-50c-6.4,0-11.9-2.2-16.2-6.5c-4.3-4.3-6.5-9.8-6.5-16.2v-93.8c-0.1-2.3-0.5-4.8-1-7.2
				c-0.6-2.8-0.8-5.5-0.6-7.8c0.3-2.8,1.6-5.1,3.9-6.8c2.2-1.6,5.9-2.4,11.2-2.4h59.3c6.3,0,11.7,2.2,16.1,6.5
				c4.4,4.3,6.7,9.8,6.7,16.2c0,3.2-0.6,6.2-1.8,9c-1.2,2.7-2.8,5.1-4.8,7.1c-2,2-4.5,3.6-7.3,4.8c-2.8,1.2-5.8,1.8-8.8,1.8h-27.3
				v2.2h13c6.3,0,11.7,2.2,16.1,6.5c4.4,4.4,6.7,9.8,6.7,16.2c0,3.2-0.6,6.2-1.8,9c-1.2,2.7-2.8,5.1-4.8,7.1c-2,2-4.4,3.6-7.2,4.8
				c-2.8,1.2-5.8,1.8-8.8,1.8h-13v2.2h27.3c6.2,0,11.7,2.2,16.1,6.5c4.4,4.3,6.7,9.8,6.7,16.2c0,3.2-0.6,6.2-1.8,9
				c-1.2,2.7-2.8,5.1-4.8,7.1c-2,2-4.5,3.6-7.2,4.8C-556.4,882.2-559.4,882.8-562.4,882.8 M-621.7,746.9c-5.5,0-7.5,0.9-8.2,1.4
				c-1.2,0.9-1.8,1.9-1.9,3.3c-0.2,1.8,0,3.9,0.5,6.2c0.6,2.7,1,5.5,1.1,8.2v94c0,5.1,1.7,9.3,5.1,12.7c3.4,3.4,7.6,5.1,12.7,5.1h50
				c2.4,0,4.7-0.5,6.9-1.4c2.2-0.9,4.1-2.2,5.7-3.8c1.6-1.6,2.9-3.5,3.8-5.6c0.9-2.1,1.4-4.5,1.4-7c0-5.1-1.7-9.2-5.2-12.7
				c-3.5-3.4-7.6-5.1-12.6-5.1h-32.2v-12.1h18c2.4,0,4.7-0.5,6.9-1.4c2.2-0.9,4.1-2.2,5.7-3.8c1.6-1.6,2.8-3.5,3.8-5.6
				c0.9-2.1,1.4-4.5,1.4-7c0-5.1-1.7-9.3-5.2-12.7c-3.5-3.4-7.6-5.1-12.6-5.1h-18v-12.1h32.2c2.4,0,4.7-0.5,6.9-1.4
				c2.2-1,4.1-2.2,5.7-3.8c1.6-1.6,2.9-3.5,3.8-5.6c0.9-2.1,1.4-4.5,1.4-7c0-5.1-1.7-9.3-5.2-12.7c-3.5-3.4-7.6-5.1-12.6-5.1H-621.7
				z"/>
		</g>
		<g>
			<path class="st4" d="M-492.6,882.8c-8.4,0-15.1-0.9-20.2-2.6c-5.4-1.9-9.9-4.1-13.2-6.7c-3.2-2.4-6-5.2-8.5-8.3
				c-2.5-3.2-4.5-6.5-5.7-10c-1.3-3.6-1.7-7.2-1.2-10.9c0.5-3.7,2.1-7.2,4.9-10.5c1.5-1.8,3.7-3.4,6.6-4.7c2.8-1.3,5.9-2,9.1-2.2
				c3.3-0.1,6.7,0.4,10.1,1.8c3.5,1.4,6.7,3.8,9.5,7.3c1.7,2.1,3.3,3.3,5.1,3.5c2.8,0.4,4,0.3,4.4,0.2c1.3-0.3,1.7-0.7,1.8-1.9
				c0-0.5,0.1-2-2.5-3.6c-2.7-1.7-6.9-4-12.5-6.9c-5.6-2.9-12.3-6.2-19.7-9.8c-1.6-0.7-3.6-1.9-5.8-3.3c-2.4-1.5-4.5-3.7-6.3-6.5
				c-1.8-2.7-3.2-6.2-4.2-10.4c-1-4.1-1.2-9.3-0.6-15.5l0,0c0.6-5.6,2.1-10.9,4.6-15.7c2.4-4.9,5.9-9.2,10.2-12.8
				c4.3-3.6,9.5-6.4,15.4-8.4c5.9-2,12.7-3,20.1-3c2.9,0,6.3,0.4,10.1,1.2c3.8,0.8,7.7,2,11.4,3.6c3.8,1.6,7.5,3.5,11,5.8
				c3.6,2.4,6.6,5.1,8.9,8c1.9,2.2,3.3,4.8,4.2,7.6c0.9,2.8,1.2,5.7,1.1,8.6c-0.2,2.9-0.7,5.7-1.8,8.4c-1.1,2.8-2.7,5.2-4.8,7.3
				c-2.3,2.3-4.9,4-7.8,5c-2.8,1-5.8,1.6-8.8,1.7c-3,0.1-6-0.4-8.9-1.3c-2.9-0.9-5.6-2.4-8-4.3c-1.1-1-2.1-2.1-2.8-3.5
				c-0.5-1-1.1-2-1.7-3c-0.5-0.7-1.1-1.4-1.8-1.9c-0.6-0.4-1.5-0.6-2.6-0.6c-2.1,0-3.2,0.4-3.7,0.7c-0.6,0.3-0.7,0.5-0.7,0.6
				c-0.1,0.3,0.2,0.8,0.4,1.1c0.5,0.7,1.2,1.3,2.2,1.9l24,13.6c6.3,3,11.8,6.5,16,10.2c4.2,3.8,7.5,7.6,9.7,11.5
				c2.2,4,3.6,8,4.1,11.9c0.5,4,0.2,7.8-0.7,11.4c-1.2,6.1-3.7,11.6-7.5,16.2c-3.7,4.4-7.9,8.1-12.6,10.9c-4.6,2.8-9.5,4.9-14.5,6.2
				c-5,1.3-9.6,2-13.7,2C-491.3,882.8-491.9,882.8-492.6,882.8 M-519.8,831.8c-0.3,0-0.5,0-0.8,0c-2.6,0.1-5.1,0.7-7.3,1.7
				c-2.2,1-3.8,2.1-4.8,3.4c-2.2,2.6-3.4,5.1-3.8,7.9c-0.4,2.8-0.1,5.7,1,8.5c1,3,2.7,5.8,4.9,8.6c2.2,2.8,4.8,5.3,7.7,7.5
				c2.9,2.3,6.9,4.3,11.8,6c4.9,1.7,11.8,2.5,20.5,2.3c3.7,0,7.9-0.6,12.4-1.9c4.6-1.2,9-3.1,13.3-5.7c4.2-2.5,8-5.8,11.3-9.8
				c3.2-3.9,5.4-8.6,6.5-14.1c0.8-3.1,1-6.3,0.6-9.7c-0.4-3.3-1.6-6.7-3.5-10.1c-2-3.4-4.9-6.9-8.7-10.3c-3.8-3.4-8.9-6.6-14.9-9.5
				l-24.1-13.7c-1.6-0.9-2.9-2-3.8-3.3c-1.1-1.5-1.5-3.1-1.3-4.7c0.2-1.2,0.9-2.9,3.2-4.2c1.5-0.9,3.6-1.3,6.2-1.3
				c2.2,0,4.1,0.5,5.5,1.5c1.3,0.9,2.3,2,3.1,3.3c0.7,1.1,1.3,2.2,1.9,3.3c0.4,0.8,0.9,1.4,1.6,2c1.9,1.5,4,2.7,6.4,3.4
				c2.4,0.8,4.8,1.1,7.3,1.1c2.5-0.1,4.9-0.5,7.2-1.4c2.2-0.8,4.3-2.1,6-3.8c1.6-1.6,2.8-3.5,3.7-5.6c0.8-2.2,1.3-4.5,1.4-6.9
				c0.1-2.3-0.2-4.7-0.9-6.9c-0.7-2.2-1.8-4.2-3.3-5.9c-2-2.6-4.6-4.9-7.8-7c-3.2-2.1-6.7-3.9-10.1-5.4c-3.5-1.4-7.1-2.6-10.6-3.3
				c-3.5-0.8-6.5-1.1-9.1-1.1c-6.9,0-13.1,0.9-18.5,2.8c-5.4,1.8-10,4.4-13.9,7.6c-3.8,3.1-6.8,6.9-9,11.2c-2.2,4.3-3.5,9-4.1,14
				c-0.6,5.6-0.4,10.2,0.5,13.8c0.9,3.6,2.1,6.6,3.5,8.8c1.5,2.2,3.1,3.9,4.9,5.1c2,1.3,3.7,2.3,5.2,2.9c7.5,3.6,14.2,6.9,19.9,9.9
				c5.7,3,10,5.4,12.8,7.1c4.2,2.6,4.9,5.8,4.8,8.1c-0.2,3.4-2.3,5.7-5.7,6.4c-1.4,0.3-3.4,0.3-6.2-0.1c-3.1-0.5-5.9-2.3-8.3-5.4
				c-2.3-2.8-4.8-4.7-7.5-5.8C-515,832.3-517.4,831.8-519.8,831.8"/>
		</g>
	</g>
</g>
</svg>
