<?xml version="1.0" encoding="utf-8"?>
<!-- Generator: Adobe Illustrator 26.0.3, SVG Export Plug-In . SVG Version: 6.00 Build 0)  -->
<svg version="1.1" id="Layer_1" xmlns="http://www.w3.org/2000/svg" xmlns:xlink="http://www.w3.org/1999/xlink" x="0px" y="0px"
	 viewBox="0 0 1663.1 1161.3" style="enable-background:new 0 0 1663.1 1161.3;" xml:space="preserve">
<style type="text/css">
	.st0{fill:#FAD5E1;}
	.st1{fill:#EDADC9;}
	.st2{fill:#F39FBC;}
</style>
<g>
	<g>
		<path class="st0" d="M132.4,611.2c9.5-20.2,19.3-40.2,28.3-60.6c2.4-5.3,3.7-11.8,3.2-17.5c-2.8-33.4,3.1-64.3,23.3-92
			c3.2-4.4,3.7-11.4,3.8-17.3c0.4-45.4-3-91,1.3-136c5.2-54.3,38.6-94.8,78.5-129.4c66.7-57.8,146-91.1,229.5-115
			C642.8,2.7,788.3-6.8,935.6,4.3c109.9,8.3,216.9,29.4,318.8,72.6c56.3,23.8,108.5,54.3,152.4,97.8c43.8,43.4,66.5,95.3,65.5,157.2
			c-0.6,34.7-1.1,69.3-1.2,104c0,5.3,0.8,11.7,3.7,15.7c20.1,27,25.5,57.4,24,90.2c-0.4,8.7,3.9,17.9,7.2,26.4
			c7.5,19.3,15.8,38.2,23.8,57.3c-1.2,0.9-2.4,1.8-3.7,2.7c6.5,1.3,13,2.7,19.5,3.9c63.8,11.2,112.4,66.6,116.7,131
			c5.2,78.7-29.5,139.3-84.4,190.8c-64.6,60.5-142.5,98.5-224.7,128.1c-113.9,41-232,62.4-352.4,72.6c-117.5,10-235,9.1-352.1-4
			c-160.1-18-315.7-52.7-458.1-131.9c-65.7-36.5-124.4-81.6-163-148.4C3.5,828.4-4.1,783.2,2,735.7c7.3-56.6,55-106,111.6-116.9
			c7.2-1.4,14.5-2.6,21.7-4C134.4,613.6,133.4,612.4,132.4,611.2z M829.2,55.9c-16.5,0-32.9-0.5-49.4,0.1
			C661,60.6,545.1,79.8,434.4,124.7c-56.6,23-109.7,51.9-151.8,97.9c-51,55.8-51.2,126.3,0.2,180.3c22,23.2,47.7,44,75,60.8
			c31.7,19.5,66.9,33.2,100.6,49.5c55.3,26.8,83.8,71.2,85.1,132.4c0.7,34.1-0.1,68.2,0.2,102.2c0.3,25.5,17.2,42.9,40.9,42.8
			c23.7,0,40.4-17.4,40.8-43c0.3-23.3-0.3-46.6,0.2-69.9c1.2-58.3,48.7-104.7,107.7-105.7c57.7-0.9,106.7,44.1,110.2,101.4
			c1.7,27.2,9.9,35.2,36.7,35.4c6.8,0.1,13.6,0.2,20.4-0.2c29.6-1.9,50.4-23.1,52-52.8c3.1-56.2,34.5-89.3,89.4-102
			c58.9-13.7,118-28.6,174.9-48.7c64.1-22.6,123.1-55.9,167.1-110.2c43.3-53.5,43.4-111.6-0.4-164.5c-13.3-16-28.2-32.1-45.5-43.2
			c-33.7-21.7-68.3-43.2-105-58.9C1104.4,73.2,968.1,56,829.2,55.9z M653.2,993.4c40,2.9,78.3,5.9,116.8,8.3
			c152,9.5,301.6-4.7,448.5-45.7c73.5-20.5,146.1-44,207-92c22.7-17.9,41.9-41.2,59.6-64.4c13.5-17.7,16.5-40.1,12.3-63.9
			c-13.1,14.4-24.4,28.5-37.4,40.8c-55.7,52.6-123.2,84.1-194.8,108.2c-177.2,59.7-359.2,74.9-544.6,59.7
			c-22.3-1.8-44.5-3.9-67.3-5.9C653.2,957.5,653.2,973.8,653.2,993.4z M1443.5,521.7c-19.3,20-36.3,40.6-56.4,57.6
			c-20.7,17.5-43.4,33.2-66.9,46.6c-97.8,55.6-205.1,81-315.6,95.3c-13.1,1.7-24.7,3.8-34.7,14.6c-34,36.6-121.8,36.5-147.2,10.6
			c-12.8-13-26.8-16-43.8-16.7c-32.6-1.4-65.1-4.8-98-7.4c-0.9,18-1.8,34.8-2.7,52.7c4.2,0.8,9.1,2.2,14,2.7
			c110.5,11.1,221,13.7,331.3-3.1c96.3-14.7,190.3-37.8,278.4-80.5c43.7-21.2,84.1-47.5,114.2-86.8
			C1435.2,582.2,1447.3,554.7,1443.5,521.7z M163.8,723.7c0,9.8-0.5,15.9,0.1,21.9c3.5,39.5,25.9,68.5,54.3,93.1
			c77.7,67.3,172.4,97.7,268.5,123.8c3.4-18.1,6.6-35.1,9.9-52.7C373.3,874.8,251.4,834.3,163.8,723.7z M488.4,681.4
			C385.3,646.1,287.5,603.2,218.7,509c-2.7,37.5,9.4,66.1,30.4,91c62.8,74.3,149.3,107.6,239.4,137.7
			C488.4,718,488.4,700.6,488.4,681.4z M598.2,976c0-8.5,0.3-17-0.1-25.4c-0.8-17-12.2-28.4-27.6-28.1
			c-14.8,0.3-26.1,11.3-26.6,27.4c-0.6,18.1-0.6,36.2,0,54.3c0.5,16.1,11.9,27.1,26.7,27.3c15.5,0.2,26.8-11.1,27.6-28.2
			C598.5,994.1,598.2,985,598.2,976z"/>
		<path class="st1" d="M653.2,993.4c0-19.5,0-35.9,0-54.8c22.8,2,45,4.1,67.3,5.9c185.4,15.2,367.4,0,544.6-59.7
			c71.6-24.1,139.2-55.6,194.8-108.2c13-12.3,24.2-26.4,37.4-40.8c4.2,23.8,1.2,46.2-12.3,63.9c-17.7,23.2-36.8,46.5-59.6,64.4
			c-60.8,48-133.4,71.5-207,92c-146.9,41-296.5,55.1-448.5,45.7C731.6,999.3,693.2,996.2,653.2,993.4z"/>
		<path class="st1" d="M1443.5,521.7c3.8,33-8.3,60.5-27.4,85.5c-30.1,39.3-70.5,65.7-114.2,86.8c-88.1,42.7-182.1,65.8-278.4,80.5
			c-110.2,16.8-220.7,14.2-331.3,3.1c-4.9-0.5-9.8-1.8-14-2.7c0.9-17.9,1.8-34.8,2.7-52.7c32.9,2.6,65.4,5.9,98,7.4
			c17,0.7,31,3.7,43.8,16.7c25.4,25.9,113.2,26,147.2-10.6c10-10.7,21.6-12.9,34.7-14.6c110.4-14.3,217.7-39.7,315.6-95.3
			c23.6-13.4,46.2-29.1,66.9-46.6C1407.2,562.3,1424.2,541.7,1443.5,521.7z"/>
		<path class="st1" d="M163.8,723.7c87.7,110.6,209.5,151.1,332.8,186.1c-3.3,17.6-6.5,34.7-9.9,52.7
			c-96.1-26.1-190.9-56.5-268.5-123.8c-28.4-24.6-50.8-53.6-54.3-93.1C163.3,739.6,163.8,733.5,163.8,723.7z"/>
		<path class="st1" d="M488.4,681.4c0,19.2,0,36.6,0,56.3c-90.1-30.1-176.5-63.4-239.4-137.7c-21-24.9-33.1-53.5-30.4-91
			C287.5,603.2,385.3,646.1,488.4,681.4z"/>
		<path class="st1" d="M598.2,976c0,9,0.3,18.1-0.1,27.1c-0.8,17.1-12.1,28.4-27.6,28.2c-14.8-0.2-26.2-11.2-26.7-27.3
			c-0.6-18.1-0.6-36.2,0-54.3c0.5-16.1,11.8-27.1,26.6-27.4c15.4-0.3,26.8,11.1,27.6,28.1C598.5,959,598.2,967.5,598.2,976z"/>
		<path class="st0" d="M747,107.5c21.5-0.9,34.3,8.3,35.3,25.4c0.9,16.7-11.3,27.6-32.3,29.3c-86.8,6.9-172.5,19.5-254.1,51.4
			c-24.1,9.4-47.1,22.2-70,34.5c-16.8,9.1-31.6,8-40.7-5.1c-9.6-13.9-5.8-29.6,10.6-40.7c43.3-29.3,91.5-48.6,141.8-60
			C537.6,142.3,663.7,113.7,747,107.5z"/>
		<path class="st0" d="M898.6,104.1c37.5,3.4,77.1,7,116.6,10.7c3.9,0.4,7.9,1.1,11.7,2.2c14.6,4.1,21.7,14.1,20.8,29
			c-0.9,14-13.2,24.8-28.1,24c-59.4-3.5-118.8-7.5-178.2-11.6c-14.8-1-25.2-13.2-25-27.4c0.2-14.2,10.7-26,25.7-26.7
			C860.2,103.5,878.4,104.1,898.6,104.1z"/>
		<path class="st2" d="M843,55.9c142.2,0.1,281.8,17.3,413.6,72.5c37.6,15.7,72.9,37.3,107.5,58.9c17.7,11.1,32.9,27.1,46.5,43.2
			c44.9,52.9,44.8,111,0.5,164.5c-45,54.3-105.5,87.6-171,110.2c-58.3,20.1-118.7,35-179.1,48.7c-56.2,12.8-88.3,45.8-91.5,102
			c-1.7,29.7-22.9,50.8-53.2,52.8c-6.9,0.4-13.9,0.3-20.9,0.2c-27.4-0.2-35.8-8.2-37.6-35.4C854,616.2,804,571.2,744.9,572.1
			c-60.4,1-109,47.3-110.2,105.7c-0.5,23.3,0.1,46.6-0.2,69.9c-0.4,25.5-17.5,42.9-41.7,43c-24.2,0-41.6-17.4-41.8-42.8
			c-0.3-34.1,0.5-68.2-0.2-102.2c-1.4-61.3-30.5-105.6-87.1-132.4c-34.4-16.3-70.5-30-102.9-49.5c-27.9-16.7-54.2-37.6-76.7-60.8
			c-52.6-54.1-52.5-124.5-0.3-180.3c43-46,97.4-74.9,155.4-97.9C552.2,79.8,670.9,60.6,792.4,56C809.2,55.3,826.1,55.9,843,55.9z
			 M537.6,142.3c-50.3,11.4-98.5,30.7-141.8,60c-16.4,11.1-20.3,26.8-10.6,40.7c9.1,13.1,23.9,14.1,40.7,5.1
			c22.9-12.3,45.8-25.1,70-34.5c81.6-31.9,167.3-44.5,254.1-51.4c21-1.7,33.3-12.5,32.3-29.3c-0.9-17.1-13.7-26.3-35.3-25.4
			 M898.6,104.1c-20.2,0-38.4-0.6-56.5,0.2c-14.9,0.7-25.5,12.5-25.7,26.7c-0.2,14.2,10.2,26.3,25,27.4
			c59.4,4.2,118.8,8.1,178.2,11.6c14.9,0.9,27.2-9.9,28.1-24c0.9-14.9-6.2-24.9-20.8-29c-3.8-1.1-7.8-1.8-11.7-2.2
			C975.7,111.2,936.2,107.6,898.6,104.1z"/>
		<path class="st1" d="M829.2,55.9c138.9,0.1,275.3,17.3,404.1,72.5c36.7,15.7,71.3,37.3,105,58.9c17.3,11.1,32.2,27.1,45.5,43.2
			c43.8,52.9,43.7,111,0.4,164.5c-44,54.3-103.1,87.6-167.1,110.2c-57,20.1-116,35-174.9,48.7c-54.9,12.8-86.3,45.8-89.4,102
			c-1.6,29.7-22.4,50.8-52,52.8c-6.8,0.4-13.6,0.3-20.4,0.2c-26.8-0.2-35-8.2-36.7-35.4c-3.6-57.3-52.5-102.3-110.2-101.4
			c-59,1-106.5,47.3-107.7,105.7c-0.5,23.3,0.1,46.6-0.2,69.9c-0.4,25.5-17.1,42.9-40.8,43c-23.6,0-40.6-17.4-40.9-42.8
			c-0.3-34.1,0.5-68.2-0.2-102.2c-1.3-61.3-29.8-105.6-85.1-132.4c-33.6-16.3-68.9-30-100.6-49.5c-27.2-16.7-52.9-37.6-75-60.8
			c-51.4-54.1-51.3-124.5-0.2-180.3c42-46,95.1-74.9,151.8-97.9C545.1,79.8,661,60.6,779.8,56C796.2,55.3,812.7,55.9,829.2,55.9z
			 M537.6,142.3c-50.3,11.4-98.5,30.7-141.8,60c-16.4,11.1-20.3,26.8-10.6,40.7c9.1,13.1,23.9,14.1,40.7,5.1
			c22.9-12.3,45.8-25.1,70-34.5c81.6-31.9,167.3-44.5,254.1-51.4c21-1.7,33.3-12.5,32.3-29.3c-0.9-17.1-13.7-26.3-35.3-25.4
			 M898.6,104.1c-20.2,0-38.4-0.6-56.5,0.2c-14.9,0.7-25.5,12.5-25.7,26.7c-0.2,14.2,10.2,26.3,25,27.4
			c59.4,4.2,118.8,8.1,178.2,11.6c14.9,0.9,27.2-9.9,28.1-24c0.9-14.9-6.2-24.9-20.8-29c-3.8-1.1-7.8-1.8-11.7-2.2
			C975.7,111.2,936.2,107.6,898.6,104.1z"/>
	</g>
	<path class="st2" d="M699.6,413.4l-19.5-160.6c0-0.2,0.1-0.4,0.4-0.5l252.4-30.7c0.2,0,0.4,0.1,0.5,0.4l19.5,160.6
		c0,0.2-0.1,0.4-0.4,0.5L700,413.7C699.8,413.8,699.6,413.6,699.6,413.4z"/>
	<path class="st0" d="M694.4,371.1l-14.4-118.4c0-0.2,0.1-0.3,0.3-0.3L933,221.6c0.2,0,0.3,0.1,0.3,0.3l14.4,118.4
		c0,0.2-0.1,0.3-0.3,0.3l-252.7,30.7C694.6,371.4,694.5,371.3,694.4,371.1z"/>
	<g>
		<g>
			<path class="st0" d="M620.6,280.2c0,12.3-10,22.2-22.2,22.2s-22.2-10-22.2-22.2s10-22.2,22.2-22.2S620.6,267.9,620.6,280.2
				L620.6,280.2z M620.6,280.2"/>
		</g>
	</g>
	<g>
		<g>
			<path class="st0" d="M424.4,370.9c0,12.3-10,22.2-22.2,22.2c-12.3,0-22.2-10-22.2-22.2c0-12.3,10-22.2,22.2-22.2
				C414.5,348.7,424.4,358.6,424.4,370.9L424.4,370.9z M424.4,370.9"/>
		</g>
	</g>
	<g>
		<g>
			<path class="st0" d="M1083.5,280.2c0,12.3-10,22.2-22.2,22.2s-22.2-10-22.2-22.2c0-12.3,10-22.2,22.2-22.2
				S1083.5,267.9,1083.5,280.2L1083.5,280.2z M1083.5,280.2"/>
		</g>
	</g>
	<g>
		<g>
			<path class="st0" d="M1170.9,170c0,12.3-10,22.2-22.2,22.2s-22.2-10-22.2-22.2s10-22.2,22.2-22.2S1170.9,157.8,1170.9,170
				L1170.9,170z M1170.9,170"/>
		</g>
	</g>
	<g>
		<g>
			<path class="st0" d="M1302,307.1c0,12.3-10,22.2-22.2,22.2s-22.2-10-22.2-22.2s10-22.2,22.2-22.2S1302,294.8,1302,307.1
				L1302,307.1z M1302,307.1"/>
		</g>
	</g>
	<g>
		<g>
			<path class="st0" d="M1083.5,435.1c0,12.3-10,22.2-22.2,22.2s-22.2-10-22.2-22.2c0-12.3,10-22.2,22.2-22.2
				S1083.5,422.9,1083.5,435.1L1083.5,435.1z M1083.5,435.1"/>
		</g>
	</g>
	<g>
		<g>
			<path class="st0" d="M620.6,537.4c0,12.3-10,22.2-22.2,22.2s-22.2-10-22.2-22.2c0-12.3,10-22.2,22.2-22.2
				S620.6,525.2,620.6,537.4L620.6,537.4z M620.6,537.4"/>
		</g>
	</g>
	<g>
		<g>
			<path class="st0" d="M890.6,479.6c0,12.3-10,22.2-22.2,22.2c-12.3,0-22.2-10-22.2-22.2c0-12.3,10-22.2,22.2-22.2
				C880.7,457.4,890.6,467.3,890.6,479.6L890.6,479.6z M890.6,479.6"/>
		</g>
	</g>
</g>
</svg>
